<?xml version="1.0" encoding="UTF-8"?>
<svg version="1.1" xmlns="http://www.w3.org/2000/svg" width="1280" height="600">
<path d="M0 0 C1.0434256 0.00182281 2.0868512 0.00364563 3.16189575 0.00552368 C21.18279988 0.05819381 38.80942592 0.95841456 56.6875 3.3125 C58.64139648 3.56193359 58.64139648 3.56193359 60.63476562 3.81640625 C106.25938171 9.72084983 151.56203502 20.59007112 193.6875 39.3125 C193.6875 83.5325 193.6875 127.7525 193.6875 173.3125 C189.63751478 171.96250493 186.52655695 170.83905567 182.87890625 168.87890625 C181.97954346 168.4005835 181.08018066 167.92226074 180.15356445 167.42944336 C178.71630005 166.6599939 178.71630005 166.6599939 177.25 165.875 C108.30399693 129.55909355 23.06168569 100.56447093 -54.8112793 123.82763672 C-76.63752298 130.73170566 -97.15890996 140.28161987 -115.3125 154.3125 C-116.20582031 154.9828125 -117.09914063 155.653125 -118.01953125 156.34375 C-155.1858193 185.31896707 -179.57644999 228.91674584 -185.91552734 275.48168945 C-186.63029625 282.37925337 -186.70541184 289.2579864 -186.6875 296.1875 C-186.68728851 296.94818787 -186.68707703 297.70887573 -186.68685913 298.49261475 C-186.63278282 318.10207027 -183.64213448 336.73629799 -177.3125 355.3125 C-176.99224854 356.28461426 -176.99224854 356.28461426 -176.66552734 357.27636719 C-162.0525289 401.21358283 -128.30092472 437.10528536 -87.53173828 458.20654297 C-35.99425367 483.89023992 19.09140018 484.91138566 73.6875 469.3125 C73.6875 434.3325 73.6875 399.3525 73.6875 363.3125 C42.6675 363.3125 11.6475 363.3125 -20.3125 363.3125 C-20.3125 326.0225 -20.3125 288.7325 -20.3125 250.3125 C51.2975 250.3125 122.9075 250.3125 196.6875 250.3125 C196.6875 349.3125 196.6875 448.3125 196.6875 550.3125 C188.91395182 554.19927409 181.45680559 557.51536972 173.375 560.5625 C172.75044922 560.79827759 172.12589844 561.03405518 171.48242188 561.27697754 C127.70916975 577.73887855 82.24340979 587.42630444 35.6875 591.3125 C34.60839355 591.4067627 33.52928711 591.50102539 32.41748047 591.59814453 C20.4366075 592.53052766 8.44879261 592.55593049 -3.5625 592.5625 C-5.22974121 592.56351212 -5.22974121 592.56351212 -6.93066406 592.56454468 C-23.59275978 592.54849343 -39.84510855 592.06709521 -56.3125 589.3125 C-57.33923828 589.15152832 -58.36597656 588.99055664 -59.42382812 588.82470703 C-86.7167051 584.46972774 -113.00305074 576.34541811 -138.3125 565.3125 C-139.0972168 564.97395996 -139.88193359 564.63541992 -140.69042969 564.28662109 C-165.07616987 553.65763084 -187.65087988 538.99464992 -208.3125 522.3125 C-209.323125 521.50683594 -210.33375 520.70117188 -211.375 519.87109375 C-219.59129084 513.15961809 -227.11073677 505.72481339 -234.625 498.25 C-235.1369693 497.74329773 -235.6489386 497.23659546 -236.17642212 496.71453857 C-243.02370618 489.92175821 -249.3542897 482.91522695 -255.3125 475.3125 C-255.8499585 474.63437256 -256.38741699 473.95624512 -256.94116211 473.25756836 C-304.59720964 412.55274585 -324.70914606 336.60104918 -316.3125 260.3125 C-309.79311194 208.10035086 -288.52175677 158.1109062 -255.3125 117.3125 C-254.89468262 116.79848633 -254.47686523 116.28447266 -254.04638672 115.75488281 C-244.90749972 104.574074 -235.32720301 93.11948291 -224.1875 83.8828125 C-222.86111046 82.77196126 -221.57222563 81.61560108 -220.3125 80.4296875 C-176.22508043 38.94465033 -115.96818669 13.85572479 -56.8125 4.125 C-55.87720459 3.96999023 -54.94190918 3.81498047 -53.97827148 3.65527344 C-36.02562031 0.86550894 -18.1484594 -0.06640057 0 0 Z " fill="#E11836" transform="translate(863.3125,3.6875)"/>
<path d="M0 0 C0.99241699 0.14211914 0.99241699 0.14211914 2.00488281 0.28710938 C47.59146094 6.85776077 96.67053702 17.95459258 137 41 C137 85.22 137 129.44 137 175 C133.45530521 173.58212208 130.66762059 172.31880348 127.47265625 170.3828125 C126.60954834 169.86436768 125.74644043 169.34592285 124.85717773 168.81176758 C123.93493408 168.25513428 123.01269043 167.69850098 122.0625 167.125 C82.31006951 143.42421171 40.78406636 124.40980177 -5 116 C-5.89557617 115.83483887 -6.79115234 115.66967773 -7.71386719 115.49951172 C-56.61775843 106.89819072 -110.2702533 115.36037211 -151.6394043 143.70288086 C-193.13073188 173.21781173 -219.56564663 215.86501769 -228.35498047 266.02587891 C-234.2238166 301.63131416 -228.13806333 338.48739565 -213 371 C-212.71543945 371.63196289 -212.43087891 372.26392578 -212.13769531 372.91503906 C-205.24860143 388.1829831 -195.27189224 401.68709741 -184 414 C-183.51337891 414.53189941 -183.02675781 415.06379883 -182.52539062 415.61181641 C-150.74475757 449.84897317 -102.71474384 471.16021613 -56.19091797 473.1640625 C12.76380847 475.35917257 78.61720882 448.46310401 129.81396484 402.55444336 C133.80485454 399 133.80485454 399 136 399 C136 444.21 136 489.42 136 536 C126.06979031 541.67440554 116.27692451 547.06986951 106 552 C105.28730957 552.34643555 104.57461914 552.69287109 103.84033203 553.04980469 C24.493841 591.34775774 -69.85230849 601.39667766 -153.81298828 573.05029297 C-159.95164252 570.8844216 -165.99232112 568.50456367 -172 566 C-172.82274414 565.65743164 -173.64548828 565.31486328 -174.49316406 564.96191406 C-200.99349471 553.78029598 -225.59983129 539.03770491 -248 521 C-249.33804688 519.95005859 -249.33804688 519.95005859 -250.703125 518.87890625 C-265.15514495 507.3637734 -279.19480738 494.23220827 -291 480 C-291.41975098 479.49404297 -291.83950195 478.98808594 -292.27197266 478.46679688 C-332.2373932 430.03565769 -360.8552512 368.27534349 -361.203125 304.53125 C-361.21018463 303.66137955 -361.21724426 302.79150909 -361.22451782 301.89527893 C-361.34445213 282.74999344 -361.29961406 263.91657196 -358 245 C-357.81727539 243.92459961 -357.63455078 242.84919922 -357.44628906 241.74121094 C-350.48380511 202.24140461 -335.41026751 162.71939933 -312 130 C-311.4838916 129.27635254 -310.9677832 128.55270508 -310.43603516 127.80712891 C-298.23560349 110.78303038 -298.23560349 110.78303038 -291.16015625 103.30078125 C-289.30470048 101.32453631 -287.53159554 99.30993462 -285.76171875 97.2578125 C-276.14129635 86.22477112 -265.59562424 75.93378797 -254 67 C-252.91355733 66.12593956 -251.82902749 65.24949789 -250.74609375 64.37109375 C-242.4958411 57.71585885 -233.95132816 51.67456546 -225 46 C-224.4117041 45.62665527 -223.8234082 45.25331055 -223.21728516 44.86865234 C-181.27127563 18.4909537 -134.97130277 3.94902629 -86 -2 C-85.16621826 -2.10602539 -84.33243652 -2.21205078 -83.47338867 -2.32128906 C-56.20958542 -5.32458631 -27.0635542 -3.92307824 0 0 Z " fill="#E11836" transform="translate(365,7)"/>
<path d="M0 0 C40.26 0 80.52 0 122 0 C122 187.44 122 374.88 122 568 C81.74 568 41.48 568 0 568 C0 380.56 0 193.12 0 0 Z " fill="#E01836" transform="translate(1154,16)"/>
</svg>
