<?xml version="1.0" encoding="UTF-8"?>
<svg version="1.1" xmlns="http://www.w3.org/2000/svg" width="2003" height="2044">
<path d="M0 0 C2.71705688 0.00566562 5.43410745 0.00847054 8.15116882 0.0110817 C37.20335826 0.05159065 66.08862841 0.7178651 95.04045105 3.31805801 C96.00444824 3.40291458 96.96844543 3.48777115 97.96165466 3.57519913 C190.04841552 11.72616152 280.81248044 31.93964202 391.04045105 74.31805801 C391.67174927 74.58062393 392.30304749 74.84318985 392.95347595 75.11371231 C411.67462098 82.91275153 430.00673307 91.420659 448.1870575 100.40405655 C450.07497881 101.33508539 451.96509136 102.26152129 453.85588074 103.18671036 C470.56668324 111.36767183 486.97008077 119.92453028 503.04045105 129.31805801 C504.43167175 130.1260585 504.43167175 130.1260585 505.85099792 130.95038223 C534.08769049 147.36332517 561.59332755 165.14436496 588.04045105 184.31805801 C589.15976013 185.12871719 589.15976013 185.12871719 590.30168152 185.95575333 C605.90587147 197.28840525 621.18278044 209.02205475 636.04045105 221.31805801 C637.81113223 222.75574542 639.58196997 224.19324004 641.35295105 225.63055801 C650.99014938 233.52178746 660.39691737 241.65682847 669.57951355 250.07196426 C675.28773752 255.28185122 681.16459034 260.29909366 687.04045105 265.31805801 C682.61880427 270.60850446 677.96048681 275.54476 673.07951355 280.41180801 C672.33011505 281.16216324 671.58071655 281.91251846 670.80860901 282.68561172 C669.23151907 284.26337858 667.65317993 285.83989766 666.07365417 287.41522598 C663.67602611 289.80750654 661.2837715 292.20506649 658.89201355 294.60321426 C657.35066732 296.14389948 655.80901079 297.68427436 654.26701355 299.22430801 C653.56154388 299.93180191 652.85607422 300.63929581 652.12922668 301.36822891 C648.85141452 304.63086355 645.53876315 307.79704969 642.03605652 310.81805801 C637.78319999 314.48947109 633.83195275 318.41720278 629.88420105 322.41180801 C629.13763245 323.16216324 628.39106384 323.91251846 627.62187195 324.68561172 C625.2589308 327.06065722 622.89927735 329.43892618 620.54045105 331.81805801 C617.42884459 334.95645018 614.3138135 338.09138546 611.19670105 341.22430801 C610.49750549 341.93180191 609.79830994 342.63929581 609.07792664 343.36822891 C605.19240208 347.27278764 601.19718968 350.95989157 597.0266571 354.55670547 C593.57166741 357.62056426 590.34713374 360.90912859 587.10295105 364.19305801 C586.37857849 364.92121719 585.65420593 365.64937637 584.90788269 366.39960098 C582.61626802 368.70331447 580.32794452 371.01025276 578.04045105 373.31805801 C575.02260024 376.36270581 572.00131689 379.40388768 568.97795105 382.44305801 C568.30062927 383.12867813 567.6233075 383.81429825 566.92546082 384.52069473 C563.72668779 387.73561721 560.48910256 390.84193895 557.05412292 393.80438614 C552.79443898 397.47990559 548.8374645 401.41162561 544.88420105 405.41180801 C544.13763245 406.16216324 543.39106384 406.91251846 542.62187195 407.68561172 C540.2589308 410.06065722 537.89927735 412.43892618 535.54045105 414.81805801 C532.42884459 417.95645018 529.3138135 421.09138546 526.19670105 424.22430801 C525.49750549 424.93180191 524.79830994 425.63929581 524.07792664 426.36822891 C520.19673677 430.26843172 516.20588569 433.9504747 512.04008484 437.54327774 C508.50480924 440.68102098 505.20566862 444.0509199 501.88420105 447.41180801 C501.13763245 448.16216324 500.39106384 448.91251846 499.62187195 449.68561172 C497.2589308 452.06065722 494.89927735 454.43892618 492.54045105 456.81805801 C489.42884459 459.95645018 486.3138135 463.09138546 483.19670105 466.22430801 C482.49750549 466.93180191 481.79830994 467.63929581 481.07792664 468.36822891 C477.19240208 472.27278764 473.19718968 475.95989157 469.0266571 479.55670547 C465.57166741 482.62056426 462.34713374 485.90912859 459.10295105 489.19305801 C458.37857849 489.92121719 457.65420593 490.64937637 456.90788269 491.39960098 C454.61626802 493.70331447 452.32794452 496.01025276 450.04045105 498.31805801 C447.02260024 501.36270581 444.00131689 504.40388768 440.97795105 507.44305801 C440.30062927 508.12867813 439.6233075 508.81429825 438.92546082 509.52069473 C435.06460618 513.40104143 431.08884533 517.06568749 426.94474792 520.64084244 C424.033023 523.20535349 421.30097116 525.93317366 418.57170105 528.68915176 C418.00592346 529.2563443 417.44014587 529.82353683 416.85722351 530.40791702 C415.08256528 532.18809224 413.31145006 533.9717432 411.54045105 535.75555801 C410.32453991 536.97649492 409.10839589 538.19719994 407.89201355 539.41766739 C404.93880139 542.38179815 401.98875707 545.3490476 399.04045105 548.31805801 C395.40643528 546.60683237 392.91408002 544.51871915 389.97795105 541.75555801 C385.40153345 537.50630231 380.6853428 533.49684013 375.82170105 529.57587051 C373.04545046 527.32211653 370.32597341 525.0106866 367.60295105 522.69305801 C335.34460864 495.90014177 299.42844483 474.11066679 262.04045105 455.31805801 C260.6011322 454.58740128 260.6011322 454.58740128 259.13273621 453.8419838 C211.66606177 429.85254653 159.41840836 414.02921561 107.04045105 405.31805801 C106.36899048 405.20611099 105.69752991 405.09416397 105.00572205 404.97882462 C71.01730753 399.3492777 37.30073832 397.05477691 2.85295105 397.00555801 C1.62729431 397.00188217 0.40163757 396.99820633 -0.86116028 396.9944191 C-24.04497244 396.9580656 -47.13476229 398.19860018 -70.14704895 401.06805801 C-71.14933029 401.19161163 -71.14933029 401.19161163 -72.17185974 401.31766129 C-167.29247429 413.14909301 -258.56152846 448.20069727 -385.8931427 538.72040176 C-388.61725881 541.04458543 -391.40624888 543.27729385 -394.20954895 545.50555801 C-407.65332329 556.51719654 -419.79508671 569.05812761 -432.08454895 581.31805801 C-432.71915039 581.94998062 -433.35375183 582.58190323 -434.00758362 583.23297501 C-440.54387546 589.74833685 -447.0222887 596.2431803 -452.95954895 603.31805801 C-453.90864481 604.41304476 -454.85913631 605.50682358 -455.81111145 606.59930801 C-489.87767052 646.04799464 -518.92110707 689.04802508 -542.54353333 735.54169083 C-543.91112219 738.22310817 -545.30029196 740.89229248 -546.69392395 743.56024551 C-584.25581389 816.16272927 -604.50873529 900.01062893 -609.95954895 981.31805801 C-610.04712463 982.60156143 -610.13470032 983.88506485 -610.22492981 985.20746231 C-611.00101111 997.3071345 -611.1606214 1009.38347426 -611.14704895 1021.50555801 C-611.1464447 1022.51073471 -611.14584045 1023.51591141 -611.1452179 1024.551548 C-611.01025225 1107.76033485 -593.05433483 1190.50808807 -480.95954895 1406.31805801 C-480.47196106 1406.95582169 -479.98437317 1407.59358536 -479.48200989 1408.2506752 C-473.35031091 1416.24147529 -466.95845816 1423.99289749 -460.39949036 1431.63544083 C-458.87480869 1433.4170797 -457.3599939 1435.20679212 -455.8462677 1436.99774551 C-449.0114555 1445.0675512 -449.0114555 1445.0675512 -441.6365509 1452.6400795 C-439.95499347 1454.32261614 -438.42160006 1456.0721714 -436.88142395 1457.88446426 C-432.48450438 1462.94060345 -427.76891958 1467.65505365 -423.02204895 1472.38055801 C-422.16675598 1473.23971817 -421.31146301 1474.09887833 -420.43025208 1474.98407364 C-415.99708571 1479.41047697 -411.50124614 1483.6919546 -406.74885559 1487.77386856 C-404.15196862 1490.01500788 -401.65708866 1492.35503502 -399.14704895 1494.69305801 C-393.60295068 1499.80806007 -387.85048993 1504.60530523 -381.95954895 1509.31805801 C-380.84049081 1510.22881821 -379.72203007 1511.14031278 -378.6040802 1512.05243301 C-363.85332422 1524.04195381 -348.50876305 1535.07300024 -332.70954895 1545.63055801 C-332.08837189 1546.04676407 -331.46719482 1546.46297012 -330.82719421 1546.89178848 C-321.7041621 1552.99321108 -312.41060863 1558.74001567 -302.95954895 1564.31805801 C-301.67201721 1565.08823257 -301.67201721 1565.08823257 -300.35847473 1565.87396622 C-265.1677305 1586.87979466 -227.70992172 1603.14757899 -188.95954895 1616.31805801 C-187.96987122 1616.66143204 -186.98019348 1617.00480606 -185.96052551 1617.35858536 C-101.35207026 1646.61105397 -9.89146961 1652.84124311 167.04045105 1629.31805801 C168.94117371 1628.86487198 168.94117371 1628.86487198 170.8802948 1628.40253067 C204.11837136 1620.38740884 236.96487689 1609.62520528 268.04045105 1595.31805801 C269.06412781 1594.84690567 270.08780457 1594.37575333 271.14250183 1593.89032364 C278.49736167 1590.476666 285.78231741 1586.93228436 293.04045105 1583.31805801 C294.06493347 1582.81048965 295.08941589 1582.3029213 296.14494324 1581.77997208 C318.88733603 1570.44809764 340.59876538 1557.42342374 361.04045105 1542.31805801 C362.09877136 1541.54204239 363.15709167 1540.76602676 364.2474823 1539.96649551 C367.19961244 1537.77657984 370.1255786 1535.55729778 373.04045105 1533.31805801 C373.85328552 1532.69447403 373.85328552 1532.69447403 374.68254089 1532.05829239 C387.2775995 1522.36702473 399.33834508 1512.06999299 411.04045105 1501.31805801 C411.62020691 1500.78873672 412.19996277 1500.25941544 412.79728699 1499.71405411 C422.12479376 1491.18002493 430.99635002 1482.36415873 439.49894714 1473.00799942 C440.90302546 1471.46871686 442.32436026 1469.94522003 443.7474823 1468.42352676 C449.24049671 1462.51529236 454.27053285 1456.3486835 459.19670105 1449.97040176 C461.07873488 1447.53662528 462.99342627 1445.13642733 464.94670105 1442.75946426 C472.93907372 1433.01508529 480.06714975 1422.8101689 487.04045105 1412.31805801 C487.57815125 1411.51738907 488.11585144 1410.71672012 488.66984558 1409.89178848 C497.49147547 1396.74286674 505.46015939 1383.21643244 513.04045105 1369.31805801 C513.54431335 1368.40217911 514.04817566 1367.4863002 514.56730652 1366.54266739 C528.2483329 1341.55798791 539.11827239 1315.35295944 548.04045105 1288.31805801 C548.39977722 1287.2302504 548.75910339 1286.14244278 549.12931824 1285.0216713 C556.52844402 1262.24122921 561.10804679 1238.91248359 565.04045105 1215.31805801 C379.25045105 1215.31805801 193.46045105 1215.31805801 2.04045105 1215.31805801 C2.04045105 1089.91805801 2.04045105 964.51805801 2.04045105 835.31805801 C319.17045105 835.31805801 636.30045105 835.31805801 963.04045105 835.31805801 C972.90375329 883.40165642 980.49473166 930.43660457 983.04045105 979.31805801 C983.08281891 980.07665115 983.12518677 980.83524429 983.1688385 981.6168251 C984.2814557 1001.96515356 984.24148174 1022.32130134 984.22795105 1042.69305801 C984.22768417 1043.59287777 984.2274173 1044.49269753 984.22714233 1045.41978455 C984.21740144 1071.5875044 984.15203838 1097.708963 982.2240448 1123.81921768 C982.02644537 1126.50868517 981.83791689 1129.19871034 981.64982605 1131.8888588 C974.96143987 1226.28886363 957.63227474 1319.32842201 903.04045105 1475.31805801 C902.62213013 1476.33132156 902.62213013 1476.33132156 902.19535828 1477.36505508 C893.87589126 1497.46003387 884.56296227 1517.02666705 874.92845154 1536.51666641 C873.6218257 1539.16727849 872.32985674 1541.8249924 871.0365448 1544.48212051 C864.55323991 1557.72809316 857.45591881 1570.57297495 850.04045105 1583.31805801 C849.40945496 1584.40312637 848.77845886 1585.48819473 848.12834167 1586.60614395 C832.3315138 1613.68530645 815.46357494 1639.94872441 797.04045105 1665.31805801 C796.518703 1666.03961075 795.99695496 1666.76116348 795.45939636 1667.50458145 C787.7516564 1678.14775613 779.79150737 1688.50761486 771.42131042 1698.63739395 C769.5582556 1700.90494512 767.73607769 1703.20387149 765.91545105 1705.50555801 C761.55484599 1710.96999825 757.03142394 1716.2935104 752.49357605 1721.61053848 C751.0550765 1723.30087213 749.62519668 1724.99817293 748.19670105 1726.69696426 C741.03726598 1735.17651867 733.53633822 1743.2883978 725.90324402 1751.3419838 C724.1254145 1753.22792772 722.36298501 1755.12675564 720.6068573 1757.03290176 C714.093306 1764.09709287 707.4487114 1771.01179883 700.66545105 1777.81805801 C699.928349 1778.55975235 699.19124695 1779.30144669 698.43180847 1780.06561661 C694.34001612 1784.14587238 690.14536866 1788.03604025 685.76847839 1791.80829239 C683.76420547 1793.55941188 681.88878402 1795.40371315 680.04045105 1797.31805801 C676.86929075 1800.53240532 673.58462352 1803.53556764 670.1615448 1806.47821426 C667.81554047 1808.5131462 665.52308655 1810.60096768 663.22795105 1812.69305801 C658.91270529 1816.58730419 654.4695335 1820.28460526 649.9506073 1823.93915176 C647.37170105 1826.04727782 644.83162761 1828.19066802 642.30143738 1830.35638809 C636.0295722 1835.72037247 629.60007769 1840.8341852 623.01799011 1845.8131752 C620.74249153 1847.54480153 618.48131948 1849.29434139 616.22013855 1851.04462051 C605.62388088 1859.22326617 594.88442269 1867.07076539 583.75334167 1874.50458145 C581.25577167 1876.17412339 578.7639748 1877.85200542 576.27366638 1879.53235245 C548.38052176 1898.3434916 519.70362656 1915.43985186 490.04045105 1931.31805801 C489.02805359 1931.86188126 488.01565613 1932.4057045 486.97257996 1932.96600723 C413.10610006 1972.48235011 332.61066339 2000.06899043 67.15818787 2043.21805191 C65.62627845 2043.29039343 64.09451464 2043.3658407 62.56285095 2043.4432106 C43.51406299 2044.39238727 24.48239932 2044.52019024 5.41545105 2044.50555801 C4.24299646 2044.5051577 4.24299646 2044.5051577 3.04685593 2044.5047493 C-21.34054623 2044.49431787 -45.63599396 2044.22977555 -69.95954895 2042.31805801 C-71.67438767 2042.18778344 -73.38923162 2042.05757777 -75.1040802 2041.92743301 C-163.82193629 2035.08700459 -250.82648367 2016.88006081 -452.15815735 1938.2060585 C-454.80876942 1936.89943266 -457.46648334 1935.60746371 -460.12361145 1934.31415176 C-472.46033586 1928.27416226 -484.4077427 1921.65697735 -496.31843567 1914.82001114 C-499.40627346 1913.0640139 -502.52116805 1911.36256037 -505.64241028 1909.66693497 C-543.81306439 1888.85095404 -580.27217411 1863.64676144 -614.64900208 1837.10126114 C-616.70161517 1835.51712272 -618.75868026 1833.93912559 -620.81892395 1832.36493301 C-627.26799586 1827.43382965 -633.65080178 1822.42753855 -639.95954895 1817.31805801 C-640.80775208 1816.63356583 -641.6559552 1815.94907364 -642.52986145 1815.24383926 C-648.89971786 1810.07181299 -655.14809662 1804.76908057 -661.3618927 1799.41180801 C-663.69738275 1797.39860676 -666.04311297 1795.3987764 -668.4009552 1793.41180801 C-676.75014053 1786.35781682 -684.74526112 1778.98067409 -692.6743927 1771.45965958 C-694.88011155 1769.39250511 -697.10975478 1767.35319589 -699.34292603 1765.31579971 C-707.03335384 1758.28222595 -714.44330206 1750.98778907 -721.80036926 1743.6076088 C-723.84968406 1741.55288294 -725.90436158 1739.50362698 -727.95954895 1737.45477676 C-729.2905992 1736.12306636 -730.62133956 1734.79104614 -731.95173645 1733.45868301 C-732.5529129 1732.85953079 -733.15408936 1732.26037857 -733.77348328 1731.64307022 C-737.47630616 1727.92005915 -740.98042825 1724.0697132 -744.41514587 1720.09827042 C-746.12496851 1718.12738114 -747.88372772 1716.21197535 -749.67829895 1714.31805801 C-750.30091614 1713.65805801 -750.92353333 1712.99805801 -751.5650177 1712.31805801 C-752.19021301 1711.65805801 -752.81540833 1710.99805801 -753.45954895 1710.31805801 C-758.41621452 1705.08545437 -763.24967946 1699.77414139 -767.95954895 1694.31805801 C-768.7160675 1693.44479874 -768.7160675 1693.44479874 -769.48786926 1692.55389786 C-776.10110262 1684.90610598 -782.59029643 1677.17070322 -788.95954895 1669.31805801 C-789.96676529 1668.09230748 -790.97461971 1666.8670811 -791.98298645 1665.64227676 C-799.01544986 1657.07913126 -805.7998902 1648.37009778 -812.38093567 1639.45575333 C-814.04992938 1637.19566843 -815.72527444 1634.94037603 -817.4009552 1632.68524551 C-845.03863257 1595.41989164 -870.51118742 1556.51432616 -892.65193176 1515.71844864 C-894.10438503 1513.05218267 -895.57532007 1510.39647068 -897.04548645 1507.73993301 C-935.79840525 1437.26159265 -965.38710031 1361.11048692 -1015.20954895 1119.69305801 C-1015.28677185 1118.90163406 -1015.36399475 1118.11021011 -1015.44355774 1117.29480362 C-1016.01896373 1111.3076024 -1016.50573049 1105.3156148 -1016.95954895 1099.31805801 C-1017.09035355 1097.62868622 -1017.09035355 1097.62868622 -1017.22380066 1095.9051857 C-1018.97846628 1072.6040059 -1019.32349119 1049.36637213 -1019.27760696 1026.00565338 C-1019.27196229 1023.08572967 -1019.26914446 1020.16581178 -1019.26652527 1017.24588394 C-1019.23062579 989.70926937 -1018.94633367 962.29231063 -1016.21278381 934.86774063 C-1015.94690724 932.19077558 -1015.69265654 929.51285852 -1015.43952942 926.83465958 C-1008.38994906 853.14356748 -993.89725704 779.94887152 -970.71095276 709.59906387 C-969.94813094 707.28339681 -969.19112789 704.96588141 -968.43464661 702.64813614 C-946.64604072 636.10978529 -918.26123386 571.09394256 -882.45661926 510.86737442 C-880.75448778 507.96886546 -879.12023151 505.03853039 -877.50276184 502.09222794 C-859.31033856 468.97290645 -836.84712866 437.33881673 -813.8540802 407.40790176 C-810.90793267 403.57020433 -808.00548371 399.7035503 -805.12678528 395.81512833 C-800.15701909 389.10787087 -794.98448391 382.65097613 -789.53767395 376.32587051 C-787.15361476 373.54446813 -784.82854998 370.72634885 -782.52204895 367.88055801 C-774.75616105 358.35347768 -766.73659164 349.05334693 -758.4087677 340.01337051 C-756.48632498 337.89776369 -754.60062636 335.76239728 -752.72663879 333.60443497 C-741.3853874 320.63369714 -729.22569899 308.42277645 -717.03205872 296.26019669 C-714.49694219 293.73050498 -711.96730258 291.19542268 -709.43806458 288.65985489 C-707.80101578 287.02346599 -706.16365729 285.38738684 -704.5259552 283.75165176 C-703.78309769 283.00677002 -703.04024017 282.26188828 -702.27487183 281.49443436 C-698.22316764 277.46067367 -694.08544275 273.58966645 -689.74598694 269.8663826 C-686.79884396 267.3120628 -683.98343101 264.61885923 -681.14704895 261.94305801 C-676.10389077 257.21932692 -670.93263919 252.74971511 -665.53767395 248.42743301 C-662.93528605 246.29820655 -660.44379393 244.08356444 -657.95954895 241.81805801 C-652.78407921 237.11382413 -647.40811005 232.70090314 -641.95954895 228.31805801 C-640.84998112 227.41595139 -639.74061454 226.51359718 -638.63142395 225.61102676 C-629.10019832 217.88701713 -619.32914576 210.50172441 -609.47956848 203.18964005 C-607.07259319 201.40201433 -604.67015168 199.60844184 -602.2681427 197.81415176 C-565.64938505 170.54568827 -527.00753122 146.21448634 -486.95954895 124.31805801 C-485.88866028 123.72847305 -484.81777161 123.13888809 -483.71443176 122.53143692 C-443.55580183 100.46137252 -401.86475967 81.41316936 -358.95954895 65.31805801 C-358.29133118 65.06731522 -357.6231134 64.81657242 -356.93464661 64.55823135 C-275.78892739 34.16618022 -191.28728621 14.22111702 -94.45954895 4.06805801 C-93.68316071 3.99092575 -92.90677246 3.91379349 -92.1068573 3.83432388 C-61.46099144 0.8325853 -30.7752741 -0.06533393 0 0 Z " fill="#34A753" transform="translate(1018.9595489501953,-0.3180580139160156)"/>
<path d="M0 0 C2.71705688 0.00566562 5.43410745 0.00847054 8.15116882 0.0110817 C37.20335826 0.05159065 66.08862841 0.7178651 95.04045105 3.31805801 C96.00444824 3.40291458 96.96844543 3.48777115 97.96165466 3.57519913 C190.04841552 11.72616152 280.81248044 31.93964202 391.04045105 74.31805801 C391.67174927 74.58062393 392.30304749 74.84318985 392.95347595 75.11371231 C411.67462098 82.91275153 430.00673307 91.420659 448.1870575 100.40405655 C450.07497881 101.33508539 451.96509136 102.26152129 453.85588074 103.18671036 C470.56668324 111.36767183 486.97008077 119.92453028 503.04045105 129.31805801 C504.43167175 130.1260585 504.43167175 130.1260585 505.85099792 130.95038223 C534.08769049 147.36332517 561.59332755 165.14436496 588.04045105 184.31805801 C589.15976013 185.12871719 589.15976013 185.12871719 590.30168152 185.95575333 C605.90587147 197.28840525 621.18278044 209.02205475 636.04045105 221.31805801 C637.81113223 222.75574542 639.58196997 224.19324004 641.35295105 225.63055801 C650.99014938 233.52178746 660.39691737 241.65682847 669.57951355 250.07196426 C675.28773752 255.28185122 681.16459034 260.29909366 687.04045105 265.31805801 C682.61880427 270.60850446 677.96048681 275.54476 673.07951355 280.41180801 C672.33011505 281.16216324 671.58071655 281.91251846 670.80860901 282.68561172 C669.23151907 284.26337858 667.65317993 285.83989766 666.07365417 287.41522598 C663.67602611 289.80750654 661.2837715 292.20506649 658.89201355 294.60321426 C657.35066732 296.14389948 655.80901079 297.68427436 654.26701355 299.22430801 C653.56154388 299.93180191 652.85607422 300.63929581 652.12922668 301.36822891 C648.85141452 304.63086355 645.53876315 307.79704969 642.03605652 310.81805801 C637.78319999 314.48947109 633.83195275 318.41720278 629.88420105 322.41180801 C629.13763245 323.16216324 628.39106384 323.91251846 627.62187195 324.68561172 C625.2589308 327.06065722 622.89927735 329.43892618 620.54045105 331.81805801 C617.42884459 334.95645018 614.3138135 338.09138546 611.19670105 341.22430801 C610.49750549 341.93180191 609.79830994 342.63929581 609.07792664 343.36822891 C605.19240208 347.27278764 601.19718968 350.95989157 597.0266571 354.55670547 C593.57166741 357.62056426 590.34713374 360.90912859 587.10295105 364.19305801 C586.37857849 364.92121719 585.65420593 365.64937637 584.90788269 366.39960098 C582.61626802 368.70331447 580.32794452 371.01025276 578.04045105 373.31805801 C575.02260024 376.36270581 572.00131689 379.40388768 568.97795105 382.44305801 C568.30062927 383.12867813 567.6233075 383.81429825 566.92546082 384.52069473 C563.72668779 387.73561721 560.48910256 390.84193895 557.05412292 393.80438614 C552.79443898 397.47990559 548.8374645 401.41162561 544.88420105 405.41180801 C544.13763245 406.16216324 543.39106384 406.91251846 542.62187195 407.68561172 C540.2589308 410.06065722 537.89927735 412.43892618 535.54045105 414.81805801 C532.42884459 417.95645018 529.3138135 421.09138546 526.19670105 424.22430801 C525.49750549 424.93180191 524.79830994 425.63929581 524.07792664 426.36822891 C520.19673677 430.26843172 516.20588569 433.9504747 512.04008484 437.54327774 C508.50480924 440.68102098 505.20566862 444.0509199 501.88420105 447.41180801 C501.13763245 448.16216324 500.39106384 448.91251846 499.62187195 449.68561172 C497.2589308 452.06065722 494.89927735 454.43892618 492.54045105 456.81805801 C489.42884459 459.95645018 486.3138135 463.09138546 483.19670105 466.22430801 C482.49750549 466.93180191 481.79830994 467.63929581 481.07792664 468.36822891 C477.19240208 472.27278764 473.19718968 475.95989157 469.0266571 479.55670547 C465.57166741 482.62056426 462.34713374 485.90912859 459.10295105 489.19305801 C458.37857849 489.92121719 457.65420593 490.64937637 456.90788269 491.39960098 C454.61626802 493.70331447 452.32794452 496.01025276 450.04045105 498.31805801 C447.02260024 501.36270581 444.00131689 504.40388768 440.97795105 507.44305801 C440.30062927 508.12867813 439.6233075 508.81429825 438.92546082 509.52069473 C435.06460618 513.40104143 431.08884533 517.06568749 426.94474792 520.64084244 C424.033023 523.20535349 421.30097116 525.93317366 418.57170105 528.68915176 C418.00592346 529.2563443 417.44014587 529.82353683 416.85722351 530.40791702 C415.08256528 532.18809224 413.31145006 533.9717432 411.54045105 535.75555801 C410.32453991 536.97649492 409.10839589 538.19719994 407.89201355 539.41766739 C404.93880139 542.38179815 401.98875707 545.3490476 399.04045105 548.31805801 C395.40643528 546.60683237 392.91408002 544.51871915 389.97795105 541.75555801 C385.40153345 537.50630231 380.6853428 533.49684013 375.82170105 529.57587051 C373.04545046 527.32211653 370.32597341 525.0106866 367.60295105 522.69305801 C335.34460864 495.90014177 299.42844483 474.11066679 262.04045105 455.31805801 C260.6011322 454.58740128 260.6011322 454.58740128 259.13273621 453.8419838 C211.66606177 429.85254653 159.41840836 414.02921561 107.04045105 405.31805801 C106.36899048 405.20611099 105.69752991 405.09416397 105.00572205 404.97882462 C71.01730753 399.3492777 37.30073832 397.05477691 2.85295105 397.00555801 C1.62729431 397.00188217 0.40163757 396.99820633 -0.86116028 396.9944191 C-24.04497244 396.9580656 -47.13476229 398.19860018 -70.14704895 401.06805801 C-71.14933029 401.19161163 -71.14933029 401.19161163 -72.17185974 401.31766129 C-167.29247429 413.14909301 -258.56152846 448.20069727 -385.8931427 538.72040176 C-388.61725881 541.04458543 -391.40624888 543.27729385 -394.20954895 545.50555801 C-407.65332329 556.51719654 -419.79508671 569.05812761 -432.08454895 581.31805801 C-432.71915039 581.94998062 -433.35375183 582.58190323 -434.00758362 583.23297501 C-440.54387546 589.74833685 -447.0222887 596.2431803 -452.95954895 603.31805801 C-453.90864481 604.41304476 -454.85913631 605.50682358 -455.81111145 606.59930801 C-489.87767052 646.04799464 -518.92110707 689.04802508 -542.54353333 735.54169083 C-543.91112219 738.22310817 -545.30029196 740.89229248 -546.69392395 743.56024551 C-584.25581389 816.16272927 -604.50873529 900.01062893 -609.95954895 981.31805801 C-610.04712463 982.60156143 -610.13470032 983.88506485 -610.22492981 985.20746231 C-611.00101111 997.3071345 -611.1606214 1009.38347426 -611.14704895 1021.50555801 C-611.1464447 1022.51073471 -611.14584045 1023.51591141 -611.1452179 1024.551548 C-611.04293474 1087.61098625 -600.34116629 1149.20342275 -582.0259552 1209.43524551 C-580.52539737 1214.37103019 -579.1349519 1219.29529786 -577.95954895 1224.31805801 C-585.08389217 1230.41692759 -592.37069763 1236.1961428 -599.89753723 1241.78827286 C-605.42675769 1245.90081879 -610.85415018 1250.12784389 -616.2603302 1254.40008926 C-626.62099446 1262.58730634 -637.07892619 1270.65212539 -647.55329895 1278.69305801 C-651.70196263 1281.88433777 -655.82987376 1285.10227101 -659.95954895 1288.31805801 C-666.14101018 1293.13157525 -672.33876777 1297.92230681 -678.55329895 1302.69305801 C-682.70196263 1305.88433777 -686.82987376 1309.10227101 -690.95954895 1312.31805801 C-697.14101018 1317.13157525 -703.33876777 1321.92230681 -709.55329895 1326.69305801 C-713.70196284 1329.88433793 -717.82985142 1333.10229937 -721.95954895 1336.31805801 C-730.28507055 1342.800326 -738.64291473 1349.23879902 -747.01423645 1355.66180801 C-754.1326435 1361.12931268 -761.22403708 1366.63055715 -768.3059845 1372.14520645 C-773.7061653 1376.34845467 -779.12514595 1380.52599106 -784.55329895 1384.69305801 C-788.70196263 1387.88433777 -792.82987376 1391.10227101 -796.95954895 1394.31805801 C-803.14101018 1399.13157525 -809.33876777 1403.92230681 -815.55329895 1408.69305801 C-819.70196284 1411.88433793 -823.82985142 1415.10229937 -827.95954895 1418.31805801 C-836.28507055 1424.800326 -844.64291473 1431.23879902 -853.01423645 1437.66180801 C-860.12973853 1443.12708143 -867.21850703 1448.62573952 -874.29719543 1454.13861465 C-879.773199 1458.40134064 -885.26510855 1462.64194399 -890.7837677 1466.84930801 C-893.13730932 1468.65892332 -895.43856701 1470.52310864 -897.7290802 1472.41180801 C-898.67799133 1473.18488297 -898.67799133 1473.18488297 -899.64607239 1473.97357559 C-900.870256 1474.97328306 -902.08623104 1475.98315231 -903.29255676 1477.00433731 C-907.39333392 1480.33397183 -907.39333392 1480.33397183 -909.96614075 1480.26166153 C-912.89080516 1478.87723679 -913.47045203 1477.07590374 -914.85017395 1474.17743301 C-915.6546698 1472.50632462 -915.6546698 1472.50632462 -916.47541809 1470.80145645 C-917.05436525 1469.55741039 -917.63237873 1468.31292947 -918.20954895 1467.06805801 C-918.82299937 1465.76871521 -919.43685982 1464.46956593 -920.05110168 1463.17059708 C-954.10731614 1390.68379511 -979.88377934 1314.77767172 -1015.20954895 1119.69305801 C-1015.28677185 1118.90163406 -1015.36399475 1118.11021011 -1015.44355774 1117.29480362 C-1016.01896373 1111.3076024 -1016.50573049 1105.3156148 -1016.95954895 1099.31805801 C-1017.09035355 1097.62868622 -1017.09035355 1097.62868622 -1017.22380066 1095.9051857 C-1018.97846628 1072.6040059 -1019.32349119 1049.36637213 -1019.27760696 1026.00565338 C-1019.27196229 1023.08572967 -1019.26914446 1020.16581178 -1019.26652527 1017.24588394 C-1019.23062579 989.70926937 -1018.94633367 962.29231063 -1016.21278381 934.86774063 C-1015.94690724 932.19077558 -1015.69265654 929.51285852 -1015.43952942 926.83465958 C-1008.38994906 853.14356748 -993.89725704 779.94887152 -970.71095276 709.59906387 C-969.94813094 707.28339681 -969.19112789 704.96588141 -968.43464661 702.64813614 C-946.64604072 636.10978529 -918.26123386 571.09394256 -882.45661926 510.86737442 C-880.75448778 507.96886546 -879.12023151 505.03853039 -877.50276184 502.09222794 C-859.31033856 468.97290645 -836.84712866 437.33881673 -813.8540802 407.40790176 C-810.90793267 403.57020433 -808.00548371 399.7035503 -805.12678528 395.81512833 C-800.15701909 389.10787087 -794.98448391 382.65097613 -789.53767395 376.32587051 C-787.15361476 373.54446813 -784.82854998 370.72634885 -782.52204895 367.88055801 C-774.75616105 358.35347768 -766.73659164 349.05334693 -758.4087677 340.01337051 C-756.48632498 337.89776369 -754.60062636 335.76239728 -752.72663879 333.60443497 C-741.3853874 320.63369714 -729.22569899 308.42277645 -717.03205872 296.26019669 C-714.49694219 293.73050498 -711.96730258 291.19542268 -709.43806458 288.65985489 C-707.80101578 287.02346599 -706.16365729 285.38738684 -704.5259552 283.75165176 C-703.78309769 283.00677002 -703.04024017 282.26188828 -702.27487183 281.49443436 C-698.22316764 277.46067367 -694.08544275 273.58966645 -689.74598694 269.8663826 C-686.79884396 267.3120628 -683.98343101 264.61885923 -681.14704895 261.94305801 C-676.10389077 257.21932692 -670.93263919 252.74971511 -665.53767395 248.42743301 C-662.93528605 246.29820655 -660.44379393 244.08356444 -657.95954895 241.81805801 C-652.78407921 237.11382413 -647.40811005 232.70090314 -641.95954895 228.31805801 C-640.84998112 227.41595139 -639.74061454 226.51359718 -638.63142395 225.61102676 C-629.10019832 217.88701713 -619.32914576 210.50172441 -609.47956848 203.18964005 C-607.07259319 201.40201433 -604.67015168 199.60844184 -602.2681427 197.81415176 C-565.64938505 170.54568827 -527.00753122 146.21448634 -486.95954895 124.31805801 C-485.88866028 123.72847305 -484.81777161 123.13888809 -483.71443176 122.53143692 C-443.55580183 100.46137252 -401.86475967 81.41316936 -358.95954895 65.31805801 C-358.29133118 65.06731522 -357.6231134 64.81657242 -356.93464661 64.55823135 C-275.78892739 34.16618022 -191.28728621 14.22111702 -94.45954895 4.06805801 C-93.68316071 3.99092575 -92.90677246 3.91379349 -92.1068573 3.83432388 C-61.46099144 0.8325853 -30.7752741 -0.06533393 0 0 Z " fill="#EB4334" transform="translate(1018.9595489501953,-0.3180580139160156)"/>
<path d="M0 0 C317.13 0 634.26 0 961 0 C970.86330224 48.0835984 978.45428061 95.11854656 981 144 C981.04236786 144.75859314 981.08473572 145.51718628 981.12838745 146.29876709 C982.24100465 166.64709555 982.20103069 187.00324332 982.1875 207.375 C982.18723312 208.27481976 982.18696625 209.17463951 982.18669128 210.10172653 C982.17695039 236.26944638 982.11158733 262.39090499 980.18359375 288.50115967 C979.98599432 291.19062715 979.79746584 293.88065233 979.609375 296.57080078 C972.92098882 390.97080561 955.59182369 484.010364 901 640 C900.72111938 640.67550903 900.44223877 641.35101807 900.15490723 642.04699707 C891.83544021 662.14197585 882.52251122 681.70860904 872.88800049 701.1986084 C871.58137465 703.84922047 870.28940569 706.50693439 868.99609375 709.1640625 C862.51278886 722.41003514 855.41546777 735.25491694 848 748 C847.05350586 749.62760254 847.05350586 749.62760254 846.08789062 751.28808594 C830.29106275 778.36724843 813.42312389 804.63066639 795 830 C794.21737793 831.0823291 794.21737793 831.0823291 793.41894531 832.18652344 C785.71120535 842.82969812 777.75105632 853.18955684 769.38085938 863.31933594 C767.51780455 865.5868871 765.69562664 867.88581347 763.875 870.1875 C759.51439494 875.65194024 754.99097289 880.97545238 750.453125 886.29248047 C749.01462545 887.98281411 747.58474563 889.68011492 746.15625 891.37890625 C738.99681493 899.85846066 731.49588717 907.97033978 723.86279297 916.02392578 C722.08496345 917.9098697 720.32253396 919.80869762 718.56640625 921.71484375 C712.05285495 928.77903486 705.40826035 935.69374082 698.625 942.5 C697.88789795 943.24169434 697.1507959 943.98338867 696.39135742 944.74755859 C692.30490135 948.82249314 688.12765274 952.72541311 683.73974609 956.47460938 C682.08802855 957.92281752 680.53416938 959.42872787 679 961 C673.99628305 959.4500915 670.61591597 956.44269181 666.6875 953.125 C661.18411029 948.56192624 655.61829192 944.1325105 649.875 939.875 C643.73758461 935.31743243 637.69670053 930.65762772 631.69921875 925.91796875 C627.46203225 922.56965393 623.2008277 919.25243115 618.9375 915.9375 C618.16680176 915.33824707 617.39610352 914.73899414 616.60205078 914.12158203 C611.2170858 909.93811659 605.81523926 905.77735539 600.40625 901.625 C595.47145464 897.82900357 590.56454869 893.99701961 585.65234375 890.171875 C581.27855923 886.76757571 576.89641293 883.37502406 572.5 880 C566.53010829 875.41705283 560.59045507 870.79589513 554.65234375 866.171875 C550.27855923 862.76757571 545.89641293 859.37502406 541.5 856 C535.53010829 851.41705283 529.59045507 846.79589513 523.65234375 842.171875 C519.27855923 838.76757571 514.89641293 835.37502406 510.5 832 C504.53010829 827.41705283 498.59045507 822.79589513 492.65234375 818.171875 C488.27855923 814.76757571 483.89641293 811.37502406 479.5 808 C473.53010829 803.41705283 467.59045507 798.79589513 461.65234375 794.171875 C457.27855923 790.76757571 452.89641293 787.37502406 448.5 784 C442.53010829 779.41705283 436.59045507 774.79589513 430.65234375 770.171875 C426.27855923 766.76757571 421.89641293 763.37502406 417.5 760 C411.53010829 755.41705283 405.59045507 750.79589513 399.65234375 746.171875 C394.26055889 741.9752235 388.85068708 737.80338971 383.4296875 733.64453125 C380.75934593 731.59073152 378.10102218 729.52190088 375.4453125 727.44921875 C374.64802734 726.82724609 373.85074219 726.20527344 373.02929688 725.56445312 C371.46972832 724.34695078 369.91107781 723.12827118 368.35351562 721.90820312 C363.97604573 718.49135553 359.54267047 715.19425246 355 712 C356.31280904 708.06157289 358.76309922 706.84284893 362.0625 704.625 C369.76272872 699.29299449 376.97723826 693.45412239 384.19140625 687.48828125 C385.78410836 686.17765597 387.39099377 684.88430708 389 683.59375 C395.69652048 678.22096031 401.99582401 672.5005109 408.25244141 666.62988281 C410.0463708 664.95675169 411.85527242 663.30120408 413.66796875 661.6484375 C422.0007814 654.01896669 429.84028472 646.06252518 437.44238281 637.70605469 C438.85351623 636.16044335 440.28130272 634.63007692 441.7109375 633.1015625 C447.20234278 627.19440414 452.23122419 621.02914634 457.15625 614.65234375 C459.03828383 612.21856726 460.95297522 609.81836931 462.90625 607.44140625 C470.89862267 597.69702728 478.0266987 587.49211088 485 577 C485.5377002 576.19933105 486.07540039 575.39866211 486.62939453 574.57373047 C495.45102442 561.42480873 503.41970834 547.89837443 511 534 C511.75579346 532.62618164 511.75579346 532.62618164 512.52685547 531.22460938 C526.20788185 506.23992989 537.07782134 480.03490143 546 453 C546.35932617 451.91219238 546.71865234 450.82438477 547.08886719 449.70361328 C554.48799297 426.92317119 559.06759574 403.59442558 563 380 C377.21 380 191.42 380 0 380 C0 254.6 0 129.2 0 0 Z " fill="#4185F3" transform="translate(1021,835)"/>
<path d="M0 0 C5.08056695 3.26895433 9.81396591 6.89400893 14.5625 10.625 C16.17816701 11.88830021 17.79405347 13.15131981 19.41015625 14.4140625 C20.19664551 15.02926758 20.98313477 15.64447266 21.79345703 16.27832031 C24.68429871 18.53393168 27.5903717 20.76866722 30.5 23 C37.91613129 28.69469554 45.29198584 34.44087592 52.66943359 40.18554688 C56.44517266 43.12513338 60.22265535 46.06247715 64 49 C65.50000877 50.16665539 67.00000876 51.33332207 68.5 52.5 C69.2425 53.0775 69.985 53.655 70.75 54.25 C95.5 73.5 95.5 73.5 97.7512207 75.25097656 C99.24711662 76.41443312 100.74304745 77.57784478 102.23901367 78.74121094 C106.05209776 81.70661998 109.86452064 84.67287262 113.67578125 87.640625 C120.27201386 92.77594703 126.86968837 97.9087193 133.5 103 C140.91613129 108.69469554 148.29198584 114.44087592 155.66943359 120.18554688 C159.44517266 123.12513338 163.22265535 126.06247715 167 129 C168.50000877 130.16665539 170.00000876 131.33332207 171.5 132.5 C172.2425 133.0775 172.985 133.655 173.75 134.25 C198.5 153.5 198.5 153.5 200.7512207 155.25097656 C202.24711662 156.41443312 203.74304745 157.57784478 205.23901367 158.74121094 C209.05209776 161.70661998 212.86452064 164.67287262 216.67578125 167.640625 C223.27201386 172.77594703 229.86968837 177.9087193 236.5 183 C243.91613129 188.69469554 251.29198584 194.44087592 258.66943359 200.18554688 C262.44517266 203.12513338 266.22265535 206.06247715 270 209 C271.50000877 210.16665539 273.00000876 211.33332207 274.5 212.5 C275.2425 213.0775 275.985 213.655 276.75 214.25 C283.5 219.5 283.5 219.5 285.75024414 221.25024414 C287.24936022 222.41618716 288.74854636 223.58204012 290.24780273 224.74780273 C294.01190803 227.67480437 297.77476008 230.60339052 301.53515625 233.53515625 C311.64623102 241.41479142 321.80408899 249.23045769 332 257 C330.27368824 264.15014802 328.38417132 271.22666825 326.29833984 278.2800293 C312.88930423 323.77710631 304.17415478 370.65250648 301 418 C300.91242432 419.28350342 300.82484863 420.56700684 300.73461914 421.8894043 C299.95853784 433.98907648 299.79892755 446.06541625 299.8125 458.1875 C299.81310425 459.1926767 299.8137085 460.19785339 299.81433105 461.23348999 C299.91661421 524.29292824 310.61838266 585.88536474 328.93359375 646.1171875 C330.43415158 651.05297218 331.82459705 655.97723984 333 661 C325.87565678 667.09886958 318.58885132 672.87808478 311.06201172 678.47021484 C305.53279126 682.58276077 300.10539877 686.80978588 294.69921875 691.08203125 C284.33855449 699.26924832 273.88062277 707.33406737 263.40625 715.375 C259.25758632 718.56627975 255.12967519 721.784213 251 725 C244.81853877 729.81351723 238.62078118 734.60424879 232.40625 739.375 C228.25758632 742.56627975 224.12967519 745.784213 220 749 C213.81853877 753.81351723 207.62078118 758.60424879 201.40625 763.375 C197.25758611 766.56627991 193.12969753 769.78424136 189 773 C180.6744784 779.48226799 172.31663422 785.92074101 163.9453125 792.34375 C156.82690545 797.81125466 149.73551187 803.31249914 142.65356445 808.82714844 C137.25338365 813.03039666 131.834403 817.20793305 126.40625 821.375 C122.25758632 824.56627975 118.12967519 827.784213 114 831 C107.81853877 835.81351723 101.62078118 840.60424879 95.40625 845.375 C91.25758611 848.56627991 87.12969753 851.78424136 83 855 C74.6744784 861.48226799 66.31663422 867.92074101 57.9453125 874.34375 C50.82981042 879.80902342 43.74104192 885.3076815 36.66235352 890.82055664 C31.18634995 895.08328263 25.6944404 899.32388597 20.17578125 903.53125 C17.82223963 905.34086531 15.52098194 907.20505062 13.23046875 909.09375 C12.59786133 909.6091333 11.96525391 910.1245166 11.31347656 910.65551758 C10.08929295 911.65522505 8.87331791 912.6650943 7.66699219 913.6862793 C3.56621503 917.01591382 3.56621503 917.01591382 0.9934082 916.94360352 C-1.93125621 915.55917878 -2.51090308 913.75784572 -3.890625 910.859375 C-4.42695557 909.74530273 -4.96328613 908.63123047 -5.51586914 907.48339844 C-6.0948163 906.23935238 -6.67282978 904.99487146 -7.25 903.75 C-7.86345042 902.4506572 -8.47731087 901.15150791 -9.09155273 899.85253906 C-43.14776719 827.3657371 -68.92423039 751.45961371 -104.25 556.375 C-104.3272229 555.58357605 -104.4044458 554.7921521 -104.48400879 553.97674561 C-105.05941478 547.98954438 -105.54618154 541.99755678 -106 536 C-106.1308046 534.3106282 -106.1308046 534.3106282 -106.26425171 532.58712769 C-108.01891733 509.28594789 -108.36394224 486.04831412 -108.31805801 462.68759537 C-108.31241334 459.76767166 -108.30959551 456.84775377 -108.30697632 453.92782593 C-108.27107684 426.39121135 -107.98678472 398.97425262 -105.25323486 371.54968262 C-104.98735829 368.87271756 -104.73310759 366.1948005 -104.47998047 363.51660156 C-97.43040011 289.82550947 -82.93770809 216.63081351 -59.75140381 146.28100586 C-58.98858199 143.9653388 -58.23157893 141.6478234 -57.47509766 139.33007812 C-41.78313432 91.40973994 -22.26663939 45.21605175 0 0 Z " fill="#FABB05" transform="translate(108,563)"/>
</svg>
