<?xml version="1.0" encoding="UTF-8"?>
<svg version="1.1" xmlns="http://www.w3.org/2000/svg" width="1474" height="1561">
<path d="M0 0 C1.55952326 -0.00239248 3.11904538 -0.00565935 4.6785652 -0.0097166 C8.96228978 -0.01832474 13.24592656 -0.01451502 17.52965246 -0.00866088 C22.19117454 -0.00448744 26.85268069 -0.0118944 31.5141989 -0.01781338 C39.68430259 -0.0265776 47.85438122 -0.02788669 56.02448845 -0.02431011 C68.17505531 -0.01900511 80.32559789 -0.02509669 92.47616211 -0.03339304 C115.44627463 -0.04864517 138.41637614 -0.05033656 161.38649265 -0.04787002 C179.13671115 -0.04603723 196.88692604 -0.04779667 214.63714409 -0.05209446 C217.18757969 -0.05269687 219.7380153 -0.05329807 222.2884509 -0.05389806 C226.13191595 -0.05480533 229.97538099 -0.055714 233.81884603 -0.05663041 C269.56732606 -0.06506296 305.31580457 -0.06941263 341.06428528 -0.06522369 C342.07510253 -0.06510661 342.07510253 -0.06510661 343.10634033 -0.06498716 C350.62033054 -0.0641144 358.13432074 -0.06318514 365.64831094 -0.06223653 C366.32667466 -0.06215102 367.00503838 -0.06206551 367.70395858 -0.06197741 C373.33929823 -0.06126677 373.33929823 -0.06126677 375.93400379 -0.06093518 C419.26480113 -0.05540705 462.59557714 -0.06291903 505.92637062 -0.08170605 C516.83251059 -0.08642881 527.73865056 -0.09110958 538.64479065 -0.09554291 C539.31645199 -0.09581623 539.98811332 -0.09608955 540.68012804 -0.09637116 C577.02648472 -0.11106886 613.37284136 -0.11217307 649.71920073 -0.10913056 C654.8378853 -0.10873524 659.95656987 -0.10837369 665.07525444 -0.10803318 C666.33556175 -0.10794245 667.59586905 -0.10785172 668.89436749 -0.10775824 C687.87161751 -0.10659512 706.84885453 -0.11321922 725.8261013 -0.1238451 C747.43876881 -0.13593441 769.05140782 -0.13741387 790.66407578 -0.12505493 C802.73864852 -0.11845809 814.81315301 -0.11998329 826.8877202 -0.13364345 C834.98188821 -0.14195523 843.07600567 -0.13910417 851.17016967 -0.12766818 C855.76352235 -0.12147716 860.35674298 -0.1196373 864.95008747 -0.13153151 C895.29612462 -0.20477998 925.36136437 1.45209658 955.40830421 5.94197559 C956.26059608 6.0663097 957.11288795 6.19064381 957.99100685 6.31874561 C977.35774333 9.15831445 996.50871913 12.93303909 1015.59580421 17.25447559 C1016.30418434 17.4145409 1017.01256447 17.57460621 1017.74241066 17.73952198 C1084.89408103 32.99485537 1150.689353 58.79895329 1208.59580421 96.25447559 C1209.19763527 96.64183887 1209.79946632 97.02920216 1210.41953468 97.42830372 C1223.08811798 105.61520135 1235.21806273 114.53248242 1246.98349953 123.96248341 C1248.47274614 125.15586515 1249.96762283 126.34221188 1251.46299171 127.52791309 C1257.71108367 132.54449707 1263.60876591 137.86911413 1269.45908546 143.33650684 C1272.21792282 145.91394119 1275.02315386 148.43441179 1277.84580421 150.94197559 C1284.57392308 156.98310663 1290.91578569 163.31209159 1296.79892921 170.18025684 C1298.77042851 172.45605277 1300.80714817 174.66370226 1302.84580421 176.87947559 C1308.43201814 183.08007853 1313.52386029 189.63277103 1318.59580421 196.25447559 C1319.33733742 197.21861378 1319.33733742 197.21861378 1320.09385109 198.2022295 C1339.66880477 223.71643071 1356.47561204 251.50298143 1369.34580421 281.00447559 C1369.64094917 281.67956165 1369.93609413 282.35464771 1370.24018288 283.05019093 C1393.874825 337.43012765 1405.67710646 395.43831523 1409.416605 454.44246387 C1409.5759063 456.94223561 1409.75361772 459.43987983 1409.93564796 461.93806934 C1416.15941893 554.81976814 1398.7839978 651.00305186 1308.59580421 798.25447559 C1306.7167463 800.399565 1304.83511397 802.5415077 1302.93564796 804.66853809 C1301.39993583 806.42560418 1301.39993583 806.42560418 1299.59580421 809.25447559 C1298.93580421 809.25447559 1298.27580421 809.25447559 1297.59580421 809.25447559 C1297.19965919 810.13849049 1297.19965919 810.13849049 1296.79551125 811.04036427 C1295.55003369 813.33894708 1294.25028208 814.84387076 1292.40049171 816.68025684 C1291.77134865 817.30827198 1291.14220558 817.93628712 1290.49399757 818.58333302 C1289.82634377 819.23793507 1289.15868996 819.89253712 1288.47080421 820.56697559 C1287.44321999 821.58271656 1287.44321999 821.58271656 1286.39487648 822.61897755 C1281.9326253 827.00587617 1277.38983842 831.23169369 1272.59580421 835.25447559 C1271.53849337 836.17353069 1270.48264731 837.09427218 1269.42783546 838.01619434 C1262.0507489 844.44324811 1254.50281372 850.48315333 1246.59580421 856.25447559 C1245.43338789 857.12429056 1244.27196968 857.99544061 1243.11142921 858.86775684 C1167.34103781 915.5716434 1073.45252679 944.16661822 980.59580421 956.25447559 C979.32527199 956.42173145 978.05473976 956.58898731 976.74570656 956.76131153 C952.01597009 959.92960674 926.99570279 961.36788787 902.06846046 961.27010059 C901.00995384 961.26613773 899.95144722 961.26217487 898.86086464 961.25809193 C893.65869845 961.23195039 888.45819792 961.17979127 883.25669289 961.09309864 C881.34368914 961.07259602 879.43068462 961.05216615 877.51767921 961.03181934 C876.6618676 961.00996571 875.80605598 960.98811207 874.92431068 960.9655962 C868.92046852 960.91731416 863.05414021 961.59387867 857.59580421 964.25447559 C853.21411327 969.13981497 853.45287704 973.99255854 853.46831226 980.25494671 C853.46666843 981.19156088 853.4650246 982.12817506 853.46333095 983.09317148 C853.45898678 986.26136461 853.46180013 989.42951239 853.46450233 992.59770679 C853.46280135 994.88029552 853.4606522 997.16288396 853.45809108 999.44547188 C853.45348266 1004.4238142 853.45207544 1009.40214407 853.45305634 1014.3804884 C853.45450865 1021.78384456 853.45050859 1029.18718799 853.44497586 1036.59054182 C853.43631687 1048.28174424 853.43096028 1059.97294518 853.42777434 1071.66415028 C853.42263437 1090.23020895 853.40717178 1108.79624838 853.38819786 1127.36229757 C853.38417619 1131.31263375 853.38025532 1135.26297003 853.37633151 1139.21330631 C853.37554885 1140.00083498 853.37476619 1140.78836366 853.37395982 1141.59975684 C853.37237423 1143.19565816 853.37078941 1144.79155947 853.36920534 1146.38746079 C853.36761405 1147.98930531 853.3660198 1149.59114984 853.3644226 1151.19299436 C853.34558474 1170.09141639 853.32850292 1188.98983972 853.31284523 1207.88826466 C853.31181185 1209.12889841 853.31181185 1209.12889841 853.31075759 1210.39459547 C853.28850577 1237.20218269 853.27666014 1264.00976435 853.26917867 1290.81735932 C853.26141131 1318.37672396 853.24034154 1345.93605058 853.20363607 1373.49539247 C853.19846249 1377.3892192 853.19345512 1381.28304612 853.18855667 1385.17687321 C853.18758971 1385.94320572 853.18662275 1386.70953824 853.1856265 1387.49909295 C853.1704926 1399.8250286 853.16958968 1412.15092613 853.1742138 1424.47686852 C853.17860147 1436.87185647 853.16866576 1449.26676637 853.14412674 1461.66173141 C853.13124572 1468.37514984 853.12529165 1475.08839023 853.13654327 1481.80182552 C853.14671643 1487.9508392 853.13845213 1494.0995454 853.11568031 1500.24852277 C853.1106889 1502.4700447 853.11240837 1504.69159427 853.12161299 1506.91310273 C853.17848589 1521.81391634 853.22980885 1535.61831346 842.59580421 1547.25447559 C841.83267921 1548.12072559 841.06955421 1548.98697559 840.28330421 1549.87947559 C831.04117157 1558.04694165 823.18545384 1560.54643122 811.0506382 1560.57332325 C810.00102252 1560.58335471 808.95140684 1560.59338617 807.86998463 1560.60372162 C804.36062784 1560.63473747 800.85134929 1560.6516945 797.34189796 1560.66853809 C794.82483283 1560.68757525 792.30777343 1560.70738502 789.79071999 1560.72791004 C782.96189205 1560.78063786 776.13305438 1560.8203193 769.30412102 1560.8563776 C765.03767427 1560.87903897 760.77125342 1560.90519699 756.50483131 1560.93205738 C740.12576107 1561.03449751 723.74666364 1561.11914133 707.36743259 1561.19116402 C697.46733971 1561.23497968 687.56732247 1561.28716989 677.66729891 1561.34445333 C663.75776718 1561.42477022 649.84828843 1561.48895961 635.93857479 1561.52768803 C634.53640487 1561.53162927 633.13423501 1561.53559012 631.7320652 1561.53957081 C631.04246946 1561.54152651 630.35287372 1561.54348221 629.64238113 1561.54549718 C624.80476406 1561.56020913 619.96726006 1561.5849475 615.12970924 1561.61391163 C608.60747259 1561.65277112 602.08541507 1561.67026252 595.56304741 1561.67355251 C593.17806271 1561.67795108 590.79307885 1561.68913346 588.40816307 1561.70778942 C565.04258639 1561.88222751 550.16006905 1556.90918002 531.59580421 1542.25447559 C530.73599953 1541.58931934 529.87619484 1540.92416309 528.99033546 1540.23885059 C520.8344644 1533.77337943 513.37793591 1526.57088659 505.84824562 1519.39803028 C502.12951606 1515.85907021 498.39425805 1512.33773245 494.65830421 1508.81697559 C493.99749855 1508.19169971 493.33669289 1507.56642384 492.65586281 1506.9222002 C489.12304363 1503.58936022 485.54924639 1500.31403569 481.92026711 1497.08601856 C476.9029685 1492.57520331 472.0801983 1487.90002457 467.30674171 1483.13338184 C466.47744148 1482.30741001 465.64814125 1481.48143818 464.79371071 1480.6304369 C463.06319444 1478.90493688 461.33398705 1477.17812323 459.60605812 1475.45003223 C456.94788781 1472.7940783 454.28177889 1470.14626125 451.61533546 1467.49861622 C449.92864996 1465.81485972 448.24243443 1464.13063227 446.55674171 1462.44588184 C445.35699211 1461.25691051 445.35699211 1461.25691051 444.13300514 1460.04391956 C443.40449348 1459.31233128 442.67598183 1458.58074299 441.92539406 1457.82698536 C441.28049019 1457.18350651 440.63558632 1456.54002766 439.97113991 1455.87704945 C438.59580421 1454.25447559 438.59580421 1454.25447559 438.59580421 1452.25447559 C438.03796242 1452.03436817 437.48012062 1451.81426075 436.90537453 1451.58748341 C433.84982364 1449.82392021 431.97461134 1447.57305421 429.64267921 1444.92635059 C425.64482192 1440.4568598 421.55525459 1436.11945541 417.29892921 1431.89510059 C416.76980934 1431.36928394 416.24068947 1430.84346729 415.69553566 1430.3017168 C414.0809618 1428.70059671 412.46385182 1427.1020847 410.84580421 1425.50447559 C398.60986042 1413.4210725 398.60986042 1413.4210725 393.2237339 1407.10506153 C390.18746085 1403.65350938 386.87610693 1400.47193726 383.59580421 1397.25447559 C378.98777467 1392.73472247 374.58562624 1388.14515332 370.37314796 1383.25447559 C367.27193836 1379.76476281 363.92746289 1376.52230939 360.59580421 1373.25447559 C355.94684588 1368.69457776 351.49844203 1364.06405737 347.24814796 1359.12947559 C344.82084405 1356.37508817 342.22340885 1353.81593317 339.59580421 1351.25447559 C335.68116135 1347.39307671 331.95166564 1343.4691531 328.39658546 1339.27010059 C325.2881468 1335.79080699 321.89698698 1332.59063664 318.53721046 1329.35603809 C316.59580421 1327.25447559 316.59580421 1327.25447559 316.59580421 1325.25447559 C315.93580421 1325.25447559 315.27580421 1325.25447559 314.59580421 1325.25447559 C313.11533546 1323.75056934 313.11533546 1323.75056934 311.40830421 1321.69197559 C309.02538114 1318.88299975 306.6041936 1316.20524158 303.97080421 1313.62947559 C300.94922641 1310.64882209 298.18169507 1307.62396974 295.59580421 1304.25447559 C295.59580421 1303.59447559 295.59580421 1302.93447559 295.59580421 1302.25447559 C296.68320019 1302.26478306 297.77059616 1302.27509052 298.89094353 1302.28571033 C325.47187188 1302.53761106 352.05281435 1302.78797775 378.6337719 1303.03677845 C391.48863583 1303.15713613 404.3434949 1303.27797425 417.19834328 1303.39998341 C428.41562237 1303.50644865 439.63290989 1303.6119717 450.85020804 1303.71640968 C456.77782639 1303.77163009 462.70543979 1303.82729078 468.63304329 1303.88408375 C498.31268604 1304.17779371 498.31268604 1304.17779371 527.99326515 1304.33650684 C529.04058941 1304.34219181 530.08791367 1304.34787678 531.16697502 1304.35373402 C541.03020768 1304.35903219 550.82853988 1303.61742124 560.59580421 1302.25447559 C561.46882179 1302.16738331 562.34183937 1302.08029102 563.24131203 1301.99055958 C568.10980898 1301.40007451 568.10980898 1301.40007451 572.10215187 1298.80037403 C573.30665776 1296.93965539 574.21566361 1295.10033614 575.09580421 1293.06697559 C575.41549171 1292.41922169 575.73517921 1291.77146778 576.06455421 1291.10408497 C580.06237873 1282.7669551 580.88501618 1275.61250442 580.83910656 1266.43367767 C580.84111465 1265.24047739 580.84312274 1264.0472771 580.84519169 1262.81791922 C580.84874545 1259.50314773 580.84332044 1256.1886102 580.83413524 1252.87386404 C580.82635531 1249.26659515 580.83022477 1245.65933573 580.83262438 1242.05206186 C580.83523144 1235.72550445 580.83041303 1229.39898641 580.82075691 1223.07243633 C580.80642946 1213.65813178 580.80359961 1204.24384837 580.80317457 1194.82953417 C580.8021521 1178.9599491 580.79193456 1163.0903824 580.77669907 1147.22080517 C580.76159309 1131.42066592 580.75114114 1115.62053378 580.74662018 1099.82038784 C580.74619627 1098.34175681 580.74619627 1098.34175681 580.7457638 1096.83325444 C580.74435868 1091.823786 580.7430467 1086.81431754 580.74177771 1081.80484907 C580.73267277 1046.24125908 580.7150677 1010.67767805 580.69175148 975.11409473 C580.69034397 972.96244136 580.68893658 970.81078798 580.68752932 968.6591346 C580.68611978 966.5055573 580.68471015 964.35198 580.68330044 962.1984027 C580.68047946 957.88856177 580.67766112 953.57872083 580.67484474 949.26887989 C580.67414628 948.20179602 580.67344782 947.13471215 580.6727282 946.0352924 C580.65670375 921.50036292 580.64299671 896.96543236 580.63022804 872.43050098 C580.62940887 870.86229355 580.62940887 870.86229355 580.62857315 869.26240516 C580.61603394 845.21318163 580.60476908 821.16395795 580.59597111 797.11473274 C580.59559571 796.09187809 580.59522032 795.06902344 580.59483355 794.0151732 C580.59145955 784.79017688 580.58814005 775.56518055 580.58508342 766.34018413 C580.577871 744.57760876 580.56858303 722.81504008 580.55120468 701.05247021 C580.53356936 678.85312402 580.51953984 656.65377961 580.51401711 634.45442677 C580.51368395 633.13351361 580.51368395 633.13351361 580.51334406 631.78591534 C580.49873151 568.85128753 580.82590998 505.92417864 581.41916591 442.99242395 C581.61758837 421.80921475 581.74539631 400.6258528 581.84580421 379.44197559 C581.85323186 377.89570858 581.8606641 376.34944159 581.868101 374.80317461 C581.90710578 367.07779099 581.90710578 367.07779099 581.92947918 359.35235089 C581.98517007 352.05452968 581.98517007 352.05452968 585.0127964 348.08772755 C588.29353362 345.75927237 589.85869623 345.12947768 593.80477619 345.12419033 C594.69270727 345.12056598 595.58063835 345.11694164 596.49547642 345.11320746 C597.47706772 345.11427571 598.45865901 345.11534396 599.4699955 345.11644459 C601.02710911 345.11221267 601.02710911 345.11221267 602.61567956 345.10789526 C606.11711851 345.09951835 609.61852597 345.09820836 613.11997414 345.09676075 C615.62119575 345.09209477 618.12241652 345.08695157 620.62363625 345.08136463 C626.02184642 345.07006581 631.42005038 345.06158946 636.81826782 345.0552454 C645.35182573 345.04492685 653.88534458 345.02436456 662.41887856 345.00212574 C665.33763968 344.99464558 668.25640097 344.98723188 671.17516232 344.97983837 C672.26940088 344.97706252 672.26940088 344.97706252 673.38574528 344.97423059 C681.69379823 344.95329436 690.00185551 344.93447124 698.30991554 344.91658497 C699.06955513 344.91494679 699.82919472 344.9133086 700.6118537 344.91162078 C712.91602431 344.88534825 725.22019793 344.86669864 737.5243847 344.84999306 C750.15466571 344.83256775 762.78488787 344.8037164 775.41512185 344.7651037 C783.20624588 344.74171129 790.99727393 344.72770981 798.78843335 344.72577606 C804.76177591 344.72341589 810.73496857 344.70553953 816.70826912 344.6819067 C819.15802039 344.67470377 821.60779282 344.67261753 824.05755234 344.67600918 C827.4008074 344.67989862 830.74350269 344.66546541 834.08669472 344.64647388 C835.0571324 344.65200358 836.02757009 344.65753328 837.02741498 344.66323054 C845.56089863 344.57950448 850.50743576 342.03500316 857.59580421 337.25447559 C858.25580421 337.25447559 858.91580421 337.25447559 859.59580421 337.25447559 C859.87269742 336.68985111 860.14959063 336.12522663 860.43487453 335.54349232 C861.20739314 334.02030961 862.01497503 332.51439973 862.85667133 331.02832508 C866.2002815 324.92610191 867.35965969 320.15270206 867.39780617 313.24275684 C867.42179891 312.1983997 867.44579165 311.15404255 867.47051144 310.07803822 C867.53118646 306.89204069 867.56425057 303.70703104 867.58251429 300.52053547 C867.59683475 298.07875861 867.61688792 295.63706524 867.63736534 293.19533253 C867.74573036 279.46209693 867.76151352 265.72907018 867.76306129 251.99546909 C867.76377815 248.41608243 867.76592403 244.83669946 867.7685585 241.25731373 C867.7777571 228.74594859 867.78189916 216.234594 867.78110695 203.72322559 C867.78050335 192.09116542 867.79112414 180.45915119 867.80685061 168.82710266 C867.81992616 158.79596553 867.82529104 148.76484347 867.82465154 138.73369789 C867.82439713 132.76065725 867.82721853 126.78765782 867.83782959 120.81462574 C867.8475141 115.21326617 867.84758734 109.61198731 867.84031296 104.01062489 C867.8392685 101.95998485 867.84162172 99.90933975 867.84767342 97.85870838 C867.85541399 95.0539315 867.85073538 92.24943223 867.84304237 89.44466114 C867.85075772 88.2372239 867.85075772 88.2372239 867.85862893 87.00539398 C867.8001463 77.31657996 865.74583708 68.92576394 859.59580421 61.25447559 C853.0362352 55.6384841 847.94446226 54.13324318 839.40082741 54.11581039 C838.67074695 54.11296821 837.94066649 54.11012602 837.18846238 54.10719771 C834.72576165 54.09883466 832.26310791 54.09758085 829.80039406 54.09625721 C828.0185046 54.09169009 826.23661621 54.08668938 824.45472908 54.08129203 C819.53359568 54.067666 814.61246923 54.06027385 809.69132185 54.05386461 C804.36358622 54.04585701 799.03586484 54.03215704 793.70813942 54.0191803 C783.17518286 53.994447 772.64222264 53.97509953 762.1092521 53.95744878 C749.6144375 53.9362909 737.11963628 53.90962233 724.62483263 53.88287282 C697.63464582 53.82537059 670.64444822 53.77610284 643.6542418 53.7289882 C642.61325886 53.72717069 642.61325886 53.72717069 641.55124596 53.72531647 C640.14768093 53.72286615 638.7441159 53.72041693 637.34055087 53.71796879 C622.66234465 53.69234518 607.98414158 53.66510971 593.30593872 53.63763873 C524.18439913 53.50831413 455.06284336 53.39272038 356.59580421 53.25447559 C355.36012766 53.25276694 354.1244511 53.25105829 352.8513298 53.24929786 C293.82176956 53.16768133 234.79223431 53.10274715 175.76262164 53.07703304 C162.07940614 53.07100764 148.39620147 53.05992992 134.71299171 53.04619312 C119.38195917 53.03086285 104.05094259 53.022697 88.71990204 53.02472544 C81.04800964 53.02559567 73.37614917 53.02360495 65.70426369 53.01260471 C58.78739285 53.00269029 51.87058833 53.00271355 44.95371437 53.01000226 C42.46817869 53.01102165 39.98263885 53.00866587 37.49711037 53.00259674 C34.13425826 52.99489381 30.77163943 52.999504 27.4087925 53.00723743 C25.96956523 52.99952236 25.96956523 52.99952236 24.50126266 52.99165142 C13.49240311 53.04776778 4.93521731 54.7001227 -3.40419579 62.25447559 C-10.73340678 71.00833415 -10.69471148 80.42380456 -10.64711571 91.35603809 C-10.64815874 92.79380343 -10.6500662 94.23156837 -10.65276527 95.66933155 C-10.65753658 99.58450173 -10.64980037 103.49955924 -10.63976359 107.41471577 C-10.63114607 111.58021461 -10.6338161 115.74570838 -10.63492393 119.91121387 C-10.63506113 128.84882359 -10.62019 137.78636894 -10.60223961 146.72395802 C-10.59129949 152.23738316 -10.58399813 157.75080938 -10.57741356 163.26424122 C-10.5499507 185.58126163 -10.49807484 207.89813892 -10.42626369 230.21505928 C-10.40984648 235.34489367 -10.39521819 240.47472958 -10.38204002 245.60457325 C-10.34766316 258.68574032 -10.29629026 271.7664252 -10.19365501 284.84724903 C-10.16572917 288.4312417 -10.14617087 292.01512201 -10.13402367 295.59920216 C-10.1193886 299.686877 -10.08592988 303.77392418 -10.03607559 307.86131763 C-10.02143412 309.29630315 -10.01315611 310.73137245 -10.01226044 312.16643238 C-10.00261402 320.02473536 -9.54193871 325.50793865 -5.40419579 332.25447559 C-4.90919579 333.73947559 -4.90919579 333.73947559 -4.40419579 335.25447559 C-3.74419579 335.25447559 -3.08419579 335.25447559 -2.40419579 335.25447559 C-2.40419579 335.91447559 -2.40419579 336.57447559 -2.40419579 337.25447559 C0.35166227 338.64173597 3.11285664 340.01110932 5.90830421 341.31697559 C6.62631203 341.65857716 7.34431984 342.00017872 8.08408546 342.35213184 C14.44238778 344.6363742 21.13710166 344.39819749 27.80552101 344.38577747 C28.81928401 344.38789319 29.83304701 344.3900089 30.8775301 344.39218873 C34.26670532 344.39816931 37.65584311 344.39718997 41.04502296 344.3963213 C43.47801718 344.39935399 45.91101082 344.40287576 48.34400368 344.40684986 C53.57951794 344.41472931 58.81502782 344.41990032 64.05054665 344.42314053 C72.32826717 344.42864975 80.60594679 344.445559 88.88364601 344.46448231 C91.71831696 344.47083819 94.55298802 344.47714671 97.38765907 344.48345947 C98.0959688 344.48504324 98.80427853 344.486627 99.53405219 344.48825875 C107.58816192 344.50617813 115.64227451 344.52241404 123.69639015 344.53743458 C124.43226793 344.53881045 125.16814571 344.54018632 125.92632282 344.54160389 C137.85835468 344.56354667 149.79037592 344.57429425 161.72242439 344.58180533 C173.98223191 344.58987831 186.24194857 344.61317142 198.50170422 344.64975899 C206.05903254 344.67176824 213.61617398 344.68145354 221.17353272 344.67525866 C226.96395935 344.67170683 232.75417918 344.68895615 238.54454613 344.71393681 C240.91851114 344.72086321 243.29250735 344.72095966 245.66647148 344.71373653 C248.90670509 344.7048729 252.14593536 344.72050266 255.38608742 344.74222279 C256.32587787 344.73378025 257.26566832 344.72533771 258.23393726 344.71663934 C264.19042257 344.79049607 267.73241924 345.74482509 272.59580421 349.25447559 C274.78562155 352.5392016 274.8456071 353.47742371 274.84469318 357.28470707 C274.85159138 358.85341867 274.85159138 358.85341867 274.85862893 360.45382142 C274.85091358 362.18326749 274.85091358 362.18326749 274.84304237 363.94765186 C274.84545679 365.16974252 274.8478712 366.39183317 274.85035878 367.65095687 C274.8550312 371.05048978 274.85069178 374.44979837 274.8425945 377.84931087 C274.83602721 381.51451091 274.84096445 385.17969746 274.8444767 388.84489918 C274.84952783 396.03584778 274.84386219 403.2267505 274.8346264 410.41769341 C274.82423158 418.81507803 274.82431304 427.21245278 274.82479898 435.60984263 C274.82530027 450.62681325 274.8161281 465.64376265 274.80161476 480.66072559 C274.7875966 495.17309933 274.78044097 509.68545436 274.78110695 524.19783497 C274.78114691 525.08756596 274.78118686 525.97729694 274.78122803 526.89398947 C274.78126838 527.78229149 274.78130874 528.6705935 274.78135031 529.58581376 C274.78204521 546.15627875 274.77611221 562.72673589 274.7671971 579.29719831 C274.76420874 585.12112549 274.76312081 590.94505121 274.76266479 596.76897907 C274.76197346 603.9093553 274.75738581 611.04971835 274.74833199 618.19008902 C274.74379607 621.81918231 274.74063687 625.44825908 274.74192619 629.07735538 C274.74733835 648.49096917 274.33518866 667.85714999 273.59580421 687.25447559 C268.72080421 684.62947559 268.72080421 684.62947559 267.59580421 681.25447559 C266.93580421 681.25447559 266.27580421 681.25447559 265.59580421 681.25447559 C265.59580421 680.59447559 265.59580421 679.93447559 265.59580421 679.25447559 C264.97705421 679.00697559 264.35830421 678.75947559 263.72080421 678.50447559 C261.19221795 677.01707191 260.87741417 675.81769551 259.59580421 673.25447559 C258.97705421 672.94510059 258.35830421 672.63572559 257.72080421 672.31697559 C254.84196801 670.87755749 253.61015094 668.772409 251.59580421 666.25447559 C250.40149537 665.17369033 249.18629781 664.11578212 247.95725441 663.07466602 C243.63390794 659.33512299 239.58823991 655.37439032 235.56260109 651.31892872 C234.80375114 650.55861851 234.0449012 649.7983083 233.2630558 649.01495838 C231.62891798 647.37703881 229.99593554 645.73796586 228.36400795 644.09784412 C225.77599231 641.49697213 223.18478463 638.89931799 220.59275246 636.30244923 C214.15832167 629.85470495 207.72935943 623.40151692 201.30021095 616.94850636 C195.85766806 611.4861841 190.41304953 606.02594664 184.96569252 600.56842518 C182.42231716 598.01860326 179.8819909 595.46577059 177.34177589 592.91280079 C175.77100247 591.33839225 174.20008702 589.7641254 172.62900734 588.19002247 C171.58294067 587.13620632 171.58294067 587.13620632 170.51574135 586.06110096 C167.31675216 582.86177222 164.08127998 579.76545493 160.65317726 576.81184864 C156.10346124 572.88356956 151.87951714 568.66350843 147.64463234 564.40095997 C146.78824669 563.54311405 145.93186104 562.68526814 145.04952431 561.80142689 C142.7234036 559.4705378 140.3994926 557.13747192 138.07641602 554.80354977 C135.63061898 552.34769123 133.18151305 549.89513746 130.73264503 547.4423418 C123.99013248 540.687844 117.2526691 533.92831719 110.5152607 527.16872883 C104.33462085 520.96784701 98.15288931 514.7680637 91.9670825 508.57233572 C89.53634868 506.13746096 87.1066928 503.70153075 84.67955971 501.26306629 C81.97095669 498.54244535 79.25928093 495.82492095 76.54697609 493.10799122 C75.75609093 492.31193974 74.96520576 491.51588825 74.15035439 490.695714 C69.93122097 486.4761831 65.63313432 482.47109541 61.03111458 478.66978168 C60.55746216 478.20273067 60.08380974 477.73567966 59.59580421 477.25447559 C59.59580421 476.59447559 59.59580421 475.93447559 59.59580421 475.25447559 C58.76049171 474.91416309 58.76049171 474.91416309 57.90830421 474.56697559 C54.98305392 472.9066984 52.92621437 470.63843755 50.59580421 468.25447559 C49.35763333 467.01356271 48.11795807 465.77414992 46.87717628 464.53584766 C21.6895949 439.34826628 -3.49798648 414.1606849 -28.68556786 388.97310352 C-29.33086952 388.32852695 -29.97617119 387.68395039 -30.64102745 387.01984119 C-31.73950049 385.91999924 -32.83544954 384.81762333 -33.92749596 383.71140003 C-35.85162439 381.76497235 -37.73583069 379.99745854 -39.90419579 378.31697559 C-42.82740204 375.90533044 -45.01014615 373.1871864 -47.40419579 370.25447559 C-48.61075829 369.10978809 -48.61075829 369.10978809 -49.84169579 367.94197559 C-61.49200707 355.72335644 -63.55408838 340.71257287 -63.55136681 324.49738026 C-63.55504349 323.31704702 -63.55872018 322.13671378 -63.56250829 320.92061287 C-63.57159668 317.65699417 -63.57623632 314.39340503 -63.5788976 311.12977588 C-63.58281665 307.60470964 -63.5923937 304.07965774 -63.60111046 300.55460072 C-63.62082814 292.04866805 -63.63093438 283.54273429 -63.63983825 275.0367845 C-63.64422821 271.02541963 -63.64959311 267.01405606 -63.65482712 263.00269222 C-63.67183349 249.65880164 -63.68632661 236.31491186 -63.69357586 222.97101212 C-63.69548556 219.51203313 -63.69740592 216.05305416 -63.6993618 212.5940752 C-63.69984554 211.73442778 -63.70032928 210.87478035 -63.70082768 209.989083 C-63.70912425 196.07004676 -63.7344575 182.15109655 -63.76694248 168.23209786 C-63.80006282 153.92358991 -63.81802904 139.61512563 -63.8212201 125.30657917 C-63.82338042 117.28018417 -63.83205899 109.2539147 -63.85768127 101.22755718 C-63.87945625 94.39088403 -63.88740539 87.55436694 -63.87771449 80.71766304 C-63.87318957 77.23432459 -63.87494936 73.75130768 -63.89447594 70.26801395 C-64.04989293 37.13699931 -64.04989293 37.13699931 -53.40419579 22.25447559 C-52.96462547 21.63185841 -52.52505516 21.00924122 -52.07216454 20.36775684 C-38.97779577 3.57526664 -19.95472063 -0.06371782 0 0 Z " fill="#BC2386" transform="translate(63.40419578552246,-0.25447559356689453)"/>
</svg>
