<?xml version="1.0" encoding="UTF-8"?>
<svg version="1.1" xmlns="http://www.w3.org/2000/svg" width="3030" height="823">
<path d="M0 0 C21.6389706 18.57255706 35.5181826 41.10372389 42.421875 68.69042969 C42.65648437 69.61726563 42.89109375 70.54410156 43.1328125 71.49902344 C49.91725336 103.01225958 42.70048469 136.83415093 25.453125 163.73339844 C22.34054591 168.2645953 18.99642874 172.51671266 15.421875 176.69042969 C14.39126953 177.92212891 14.39126953 177.92212891 13.33984375 179.17871094 C-7.1382555 202.90378808 -37.63087493 217.11525489 -68.71875 219.53027344 C-102.02797904 221.3959543 -133.36513895 211.76171227 -158.86328125 190.12011719 C-183.02690283 168.49454507 -198.70767532 140.38813509 -201.578125 107.69042969 C-203.24698032 73.38044289 -195.07398715 42.23926535 -172.578125 15.69042969 C-171.91167969 14.87316406 -171.24523437 14.05589844 -170.55859375 13.21386719 C-165.5249526 7.24731088 -159.76431063 2.42618196 -153.578125 -2.30957031 C-152.42570312 -3.20289063 -152.42570312 -3.20289063 -151.25 -4.11425781 C-106.88097877 -36.8628211 -42.47048346 -35.24314252 0 0 Z " fill="#0066FF" transform="translate(490.578125,315.3095703125)"/>
<path d="M0 0 C1.03133057 0.32145996 1.03133057 0.32145996 2.08349609 0.64941406 C34.82285296 11.18674747 60.62974689 34.48193228 76.25 64.875 C90.47862212 93.67572962 91.96443805 127.58232097 82.18212891 158.02416992 C71.18364827 190.05993268 48.97318115 215.24797208 18.69458008 230.19775391 C-7.15309661 242.59106646 -37.06052422 246.09662685 -65 239 C-65.99386719 238.75056641 -65.99386719 238.75056641 -67.0078125 238.49609375 C-88.47440784 232.90151774 -107.2261337 221.39491456 -123 206 C-123.63164063 205.43023437 -124.26328125 204.86046875 -124.9140625 204.2734375 C-145.61149561 185.145478 -157.35833547 154.40880327 -158.91015625 126.703125 C-158.95462891 125.36507812 -158.95462891 125.36507812 -159 124 C-159.03996094 123.14921875 -159.07992187 122.2984375 -159.12109375 121.421875 C-159.90276512 90.70678805 -148.85109777 61.22920044 -129 38 C-128.33613281 37.19046875 -127.67226562 36.3809375 -126.98828125 35.546875 C-97.24195309 0.57706963 -43.5659914 -13.80412653 0 0 Z " fill="#0066FF" transform="translate(159,4)"/>
<path d="M0 0 C4.35744545 3.53342021 8.50754163 7.23880499 12.58203125 11.09375 C13.40574219 11.85300781 14.22945312 12.61226562 15.078125 13.39453125 C26.45531516 24.23924761 34.18048931 36.84503708 40.58203125 51.09375 C41.06542969 52.16109375 41.54882812 53.2284375 42.046875 54.328125 C54.41234344 83.94511323 53.09945583 118.88734768 41.18847656 148.40112305 C28.35233056 178.45336566 3.4731154 202.58411047 -26.65429688 215.01660156 C-31.82603967 217.00936258 -37.06788979 218.65232774 -42.41796875 220.09375 C-43.07635742 220.27164063 -43.73474609 220.44953125 -44.41308594 220.6328125 C-75.3649179 228.50748353 -109.50107911 222.35885351 -136.90966797 206.5715332 C-142.89353157 202.96859983 -148.2059433 198.73836988 -153.41796875 194.09375 C-154.25714844 193.38605469 -155.09632813 192.67835938 -155.9609375 191.94921875 C-179.1533947 171.99291837 -193.72784711 142.50080239 -196.41796875 112.09375 C-198.50963854 76.73543639 -188.91241876 43.98799287 -165.25610352 17.25830078 C-123.71353019 -28.40449639 -50.16411362 -38.19229734 0 0 Z " fill="#0066FF" transform="translate(485.41796875,599.90625)"/>
<path d="M0 0 C0.71989105 0.00370605 1.4397821 0.00741211 2.18148804 0.01123047 C31.60684972 0.22616567 58.38103304 10.08118852 80.75 29.4375 C81.55695313 30.10007812 82.36390625 30.76265625 83.1953125 31.4453125 C107.43534297 52.03794026 120.95190553 83.22983094 123.5 114.50390625 C125.5028318 146.70969833 115.64850305 179.38368713 94.21386719 203.80224609 C93.73079102 204.34187988 93.24771484 204.88151367 92.75 205.4375 C92.25661133 205.99131348 91.76322266 206.54512695 91.25488281 207.11572266 C71.42830818 228.97562971 42.25636808 243.92285935 12.75 246.4375 C-21.12925459 248.0241487 -52.82531941 240.74502072 -79.25 218.4375 C-80.24257813 217.60734375 -81.23515625 216.7771875 -82.2578125 215.921875 C-102.40239558 198.553969 -115.58812616 174.27157761 -121.25 148.4375 C-121.47558594 147.45265625 -121.70117188 146.4678125 -121.93359375 145.453125 C-127.88320913 114.43306135 -120.72001927 80.27025571 -103.05859375 54.203125 C-98.2136786 47.56348476 -92.87717948 41.42096273 -87.25 35.4375 C-86.71246094 34.83550781 -86.17492187 34.23351563 -85.62109375 33.61328125 C-73.68066743 20.77507851 -56.56479643 11.63736384 -40.125 6.0625 C-39.45823242 5.83594727 -38.79146484 5.60939453 -38.10449219 5.37597656 C-25.46747136 1.37234681 -13.16172435 -0.12234395 0 0 Z " fill="#0066FF" transform="translate(412.25,-0.4375)"/>
<path d="M0 0 C0.65323242 0.18804199 1.30646484 0.37608398 1.97949219 0.56982422 C19.7667823 5.83067685 36.17720226 14.62593382 50 27 C50.55381348 27.49338867 51.10762695 27.98677734 51.67822266 28.49511719 C73.51812676 48.30354948 88.52486463 77.5077154 91 107 C92.66777556 144.06598867 83.37981592 176.81279219 58.25 204.6875 C37.49477816 226.91591068 7.74839932 241.74800937 -22.78125 243.12548828 C-59.28811746 244.28378972 -90.67928427 234.20674049 -117.76953125 209.09765625 C-118.50558594 208.40542969 -119.24164062 207.71320313 -120 207 C-120.60199219 206.46246094 -121.20398438 205.92492187 -121.82421875 205.37109375 C-134.66242149 193.43066743 -143.80013616 176.31479643 -149.375 159.875 C-149.60155273 159.20823242 -149.82810547 158.54146484 -150.06152344 157.85449219 C-154.02766763 145.33579044 -155.52924828 133.15288087 -155.375 120.0625 C-155.37067963 119.3631131 -155.36635925 118.6637262 -155.36190796 117.94314575 C-155.28769354 107.68706426 -154.8491135 97.91445546 -152 88 C-151.6596875 86.77410156 -151.319375 85.54820313 -150.96875 84.28515625 C-144.50855306 63.13674126 -132.80102088 45.38520454 -117 30 C-116.56171875 29.505 -116.1234375 29.01 -115.671875 28.5 C-102.59471016 14.234002 -82.33304415 5.08929932 -64 0 C-62.33130859 -0.47953125 -62.33130859 -0.47953125 -60.62890625 -0.96875 C-42.19431011 -5.33005642 -18.153708 -5.34052036 0 0 Z " fill="#0066FF" transform="translate(733,3)"/>
<path d="M0 0 C18.15 0 36.3 0 55 0 C55 34.32 55 68.64 55 104 C55.66 104 56.32 104 57 104 C57.23460937 103.42765625 57.46921875 102.8553125 57.7109375 102.265625 C64.27799709 90.72352027 81.44379385 84.14654288 93.5625 80.5625 C117.47075654 74.16209039 142.9218503 78.10526706 164.30859375 90.27734375 C183.69687534 102.68696956 196.94832736 122.45080551 202.14746094 144.8215332 C205.21474272 158.90517883 204.50942252 173.47763242 204.40557575 187.8119905 C204.38024751 191.90916324 204.37819573 196.00635296 204.37347412 200.10359192 C204.36113526 207.83083408 204.32843943 215.55784475 204.28807616 223.28498584 C204.24307208 232.09538312 204.22130008 240.90579257 204.20129442 249.71627653 C204.15969649 267.81100818 204.08646077 285.90542327 204 304 C185.85 304 167.7 304 149 304 C148.9906543 299.91794189 148.98130859 295.83588379 148.97167969 291.63012695 C148.93785267 278.11526106 148.88247085 264.60055473 148.81609726 251.08581257 C148.77639312 242.89501456 148.74395704 234.70431142 148.72900391 226.51342773 C148.71594243 219.3690644 148.68886409 212.22491058 148.64538693 205.08066529 C148.62287243 201.30249278 148.60708324 197.52457771 148.60811615 193.74633217 C148.60886876 190.17978271 148.59068124 186.61380015 148.55883217 183.04739761 C148.54643982 181.13552534 148.55335015 179.22355733 148.56114197 177.31166077 C148.41788785 165.25840517 145.6795055 154.46457215 138 145 C137.49855469 144.37480469 136.99710938 143.74960937 136.48046875 143.10546875 C128.74445049 134.4659739 117.63701574 130.52218911 106.34375 129.75 C92.41240654 129.18261438 79.35805492 132.46597866 68.78125 142 C58.00425618 153.25954578 55.70724083 166.381666 55.68115234 181.39257812 C55.67183993 182.73364863 55.66166933 184.07471341 55.65071106 185.41577148 C55.62354485 189.03500495 55.60830164 192.65419978 55.59528303 196.27350807 C55.57959355 200.06385321 55.55282205 203.85412014 55.5272522 207.64440918 C55.48056698 214.81230498 55.44377342 221.98021566 55.41057932 229.14818525 C55.37228522 237.31271372 55.32289428 245.47716344 55.27259517 253.6416254 C55.16942794 270.42769896 55.08158297 287.21380555 55 304 C36.85 304 18.7 304 0 304 C0 203.68 0 103.36 0 0 Z " fill="#0066FF" transform="translate(1780,496)"/>
<path d="M0 0 C0.77988281 0.61359375 1.55976562 1.2271875 2.36328125 1.859375 C22.93202692 18.95737317 35.18218667 45.72750329 38 72 C38.76752218 84.39164558 38.22595334 95.75725665 36 108 C-18.12 108 -72.24 108 -128 108 C-123.47432625 126.102695 -116.30547664 140.82205917 -100 151 C-90.69365186 155.6285541 -81.63693308 158.39006476 -71.25 158.3125 C-70.46431641 158.30758545 -69.67863281 158.3026709 -68.86914062 158.29760742 C-55.38723679 158.02846622 -41.87175093 153.51248789 -32 144 C-31.17415522 142.46339058 -30.37340329 140.91309164 -29.59521484 139.35180664 C-27.64228873 136.36814635 -26.69205091 135.19759283 -23.22686768 134.20822144 C-19.69457574 133.95692491 -16.26541301 133.98827996 -12.7265625 134.12109375 C-10.80824112 134.14019554 -10.80824112 134.14019554 -8.85116577 134.15968323 C-5.46555312 134.20145681 -2.08548977 134.28212867 1.29858398 134.38201904 C4.75716403 134.47443084 8.21632 134.51526289 11.67578125 134.56054688 C18.45204496 134.6596772 25.2257024 134.81019648 32 135 C31.5342453 136.59669486 31.06497649 138.19236492 30.59423828 139.78759766 C30.2028215 141.12064438 30.2028215 141.12064438 29.80349731 142.48062134 C22.36622659 165.80030247 1.36756212 184.31076336 -19.6875 195.25 C-47.36715622 208.94101276 -81.62673731 209.50440999 -110.66015625 199.84521484 C-122.97395458 195.39713786 -134.01274685 189.48619278 -144 181 C-144.845625 180.31550781 -145.69125 179.63101563 -146.5625 178.92578125 C-168.51821265 160.3663429 -180.18569687 133.13749038 -183.75 105.0625 C-183.86506034 103.37686605 -183.94292084 101.68859192 -184 100 C-184.02578125 99.36610352 -184.0515625 98.73220703 -184.078125 98.07910156 C-185.29433089 64.37499588 -176.05346398 33.70078596 -153.6328125 8.3203125 C-113.42148919 -34.00045728 -44.5364309 -35.93066076 0 0 Z M-113.1953125 38.78125 C-120.66515678 47.96495466 -126.04907686 58.29446117 -128 70 C-91.37 70 -54.74 70 -17 70 C-21.1920169 53.2319324 -27.33156793 39.52711386 -41.75390625 29.3125 C-64.30787806 16.1331356 -95.12182378 19.28288043 -113.1953125 38.78125 Z " fill="#0066FF" transform="translate(1473,599)"/>
<path d="M0 0 C20.6503612 18.83359492 34.04813952 46.3333758 35.62597656 74.35009766 C35.7246189 77.22058965 35.77121591 80.08540534 35.78613281 82.95751953 C35.79169189 83.83996338 35.79725098 84.72240723 35.80297852 85.6315918 C35.72693748 92.62411713 34.65426188 98.56124514 33.47363281 105.64501953 C-47.70636719 106.14001953 -47.70636719 106.14001953 -130.52636719 106.64501953 C-125.44876339 124.41663281 -119.70191562 138.3546493 -103.47167969 148.07470703 C-88.56436398 156.02263928 -72.48054244 158.36733329 -55.96386719 154.08251953 C-50.3686946 152.23948157 -45.65529427 149.5888624 -40.83105469 146.23095703 C-38.52636719 144.64501953 -38.52636719 144.64501953 -36.28417969 143.54736328 C-33.92825883 142.33799058 -33.61614254 141.0289031 -32.52636719 138.64501953 C-29.38142866 133.83664827 -29.38142866 133.83664827 -25.84344482 133.04374695 C-24.31122284 133.06040154 -24.31122284 133.06040154 -22.74804688 133.07739258 C-21.00669464 133.07795906 -21.00669464 133.07795906 -19.23016357 133.07853699 C-17.35811249 133.11724663 -17.35811249 133.11724663 -15.44824219 133.15673828 C-14.16653137 133.16381302 -12.88482056 133.17088776 -11.56427002 133.17817688 C-8.16405103 133.19722719 -4.76490761 133.24630764 -1.3651123 133.30169678 C2.10702973 133.35293375 5.57934634 133.3757002 9.05175781 133.40087891 C15.85949007 133.45443078 22.66650975 133.53971782 29.47363281 133.64501953 C28.71306212 135.68597268 27.94618141 137.72457486 27.17675781 139.76220703 C26.75040039 140.89770996 26.32404297 142.03321289 25.88476562 143.203125 C15.64855461 168.17027082 -6.16329939 186.29779442 -30.52636719 196.64501953 C-37.99961134 199.41258357 -45.65530764 201.40496869 -53.52636719 202.64501953 C-54.23148438 202.75716797 -54.93660156 202.86931641 -55.66308594 202.98486328 C-86.05867138 206.85725026 -118.43594967 200.57617101 -143.01074219 181.70361328 C-167.50503101 161.65937383 -182.7304944 135.40298641 -186.24511719 103.80517578 C-188.41046785 75.77360098 -184.15966279 50.27159818 -170.52636719 25.64501953 C-169.98238281 24.65759766 -169.43839844 23.67017578 -168.87792969 22.65283203 C-154.86751433 -0.92567186 -130.54833956 -17.01569811 -104.36523438 -23.92529297 C-100.11536907 -24.93802683 -95.84347928 -25.69608058 -91.52636719 -26.35498047 C-90.7696875 -26.48517578 -90.01300781 -26.61537109 -89.23339844 -26.74951172 C-57.21809035 -31.39389877 -24.11434497 -21.40668819 0 0 Z M-117.52636719 38.64501953 C-124.47686072 47.65091193 -128.42516642 57.79081685 -131.52636719 68.64501953 C-94.56636719 68.64501953 -57.60636719 68.64501953 -19.52636719 68.64501953 C-23.62464281 50.88582518 -29.56492032 37.04497834 -45.08886719 26.64501953 C-49.71184745 23.91177236 -54.31142941 21.92415521 -59.52636719 20.64501953 C-60.25210937 20.46326172 -60.97785156 20.28150391 -61.72558594 20.09423828 C-83.20250333 16.64954442 -102.55986722 22.67067445 -117.52636719 38.64501953 Z " fill="#0066FF" transform="translate(1475.5263671875,176.35498046875)"/>
<path d="M0 0 C20.6503612 18.83359492 34.04813952 46.3333758 35.62597656 74.35009766 C35.7246189 77.22058965 35.77121591 80.08540534 35.78613281 82.95751953 C35.79169189 83.83996338 35.79725098 84.72240723 35.80297852 85.6315918 C35.72693748 92.62411713 34.65426188 98.56124514 33.47363281 105.64501953 C-47.70636719 106.14001953 -47.70636719 106.14001953 -130.52636719 106.64501953 C-125.44876339 124.41663281 -119.70191562 138.3546493 -103.47167969 148.07470703 C-88.56436398 156.02263928 -72.48054244 158.36733329 -55.96386719 154.08251953 C-46.39251611 150.89959382 -36.89229437 145.44126332 -31.71704102 136.52929688 C-29.80903216 134.25949844 -28.78469788 133.69560779 -25.83627319 133.1182251 C-22.32652045 132.94901832 -18.86340961 132.97155568 -15.35058594 133.05908203 C-14.07029007 133.06757172 -12.7899942 133.0760614 -11.47090149 133.08480835 C-8.07869291 133.10764045 -4.6880433 133.16650881 -1.29644775 133.23303223 C2.16901562 133.29457998 5.63473272 133.3218496 9.10058594 133.35205078 C15.89227559 133.41818062 22.68281292 133.51856889 29.47363281 133.64501953 C28.83737057 135.41517725 28.19923502 137.1846617 27.56030273 138.95385742 C27.20514084 139.93931046 26.84997894 140.92476349 26.48405457 141.94007874 C17.99956511 164.6534077 -1.88376569 183.43528353 -23.51367188 193.62133789 C-52.45911285 206.54566688 -86.82342132 207.48800305 -116.55273438 196.43115234 C-143.81949242 185.57032096 -165.37034677 164.94371597 -177.18261719 138.07080078 C-189.32895669 107.10469688 -191.07201329 70.53077147 -177.63037109 39.58203125 C-175.45602573 34.82945449 -173.05709267 30.21640946 -170.52636719 25.64501953 C-169.98238281 24.65759766 -169.43839844 23.67017578 -168.87792969 22.65283203 C-154.86751433 -0.92567186 -130.54833956 -17.01569811 -104.36523438 -23.92529297 C-100.11536907 -24.93802683 -95.84347928 -25.69608058 -91.52636719 -26.35498047 C-90.7696875 -26.48517578 -90.01300781 -26.61537109 -89.23339844 -26.74951172 C-57.21809035 -31.39389877 -24.11434497 -21.40668819 0 0 Z M-117.52636719 38.64501953 C-124.44087668 47.6042867 -128.92930505 57.46558456 -130.52636719 68.64501953 C-93.89636719 68.64501953 -57.26636719 68.64501953 -19.52636719 68.64501953 C-23.60630947 50.96526964 -29.78737702 36.30046029 -45.40136719 26.14501953 C-70.03227744 13.13682005 -98.61465158 18.45978772 -117.52636719 38.64501953 Z " fill="#0066FF" transform="translate(1815.5263671875,176.35498046875)"/>
<path d="M0 0 C16.00930468 13.43593886 26.04920736 33.25814243 27.94855499 54.04734802 C28.07601393 58.09310194 28.08681852 62.11945392 28.04394531 66.16601562 C28.0428131 67.69544952 28.04345796 69.22488559 28.04571533 70.75431824 C28.04684885 74.85054507 28.02356434 78.9462899 27.9954195 83.04240608 C27.97017491 87.34379668 27.96804589 91.64520202 27.96331787 95.94665527 C27.95095509 104.06710868 27.91822561 112.18734306 27.87791991 120.30770063 C27.83299188 129.56300356 27.81116263 138.81831773 27.79113817 148.07370281 C27.74948583 167.08964867 27.6762188 186.10529482 27.58984375 205.12109375 C12.40984375 205.12109375 -2.77015625 205.12109375 -18.41015625 205.12109375 C-20.32123644 197.47677298 -21.9152928 190.83413783 -22.41015625 183.12109375 C-22.87164063 183.54519531 -23.333125 183.96929687 -23.80859375 184.40625 C-45.16436995 203.60956654 -69.06000586 210.60539482 -97.41015625 209.12109375 C-119.4738273 207.24198249 -139.11583861 198.81324792 -154.15625 182.19140625 C-165.47903138 168.01587215 -169.54002465 150.93658147 -168.16015625 133.11328125 C-165.91172067 113.55992184 -157.92632526 97.86955707 -143.00390625 85.0546875 C-123.19483828 70.29693186 -98.45619777 66.73145222 -74.3828125 66.92578125 C-73.0141979 66.9295264 -71.64558056 66.93236623 -70.27696228 66.93435669 C-66.73100961 66.94187524 -63.18522932 66.96141726 -59.63934326 66.98376465 C-55.99851817 67.00448204 -52.35766433 67.01341287 -48.71679688 67.0234375 C-41.61451419 67.04467854 -34.51234667 67.07866562 -27.41015625 67.12109375 C-27.70522607 64.40031275 -28.00694655 61.68054433 -28.3125 58.9609375 C-28.43594788 57.81304749 -28.43594788 57.81304749 -28.56188965 56.64196777 C-29.83719125 45.42353455 -33.80451575 37.66943161 -42.41015625 30.12109375 C-53.33124685 23.14950444 -66.2515939 22.2872855 -78.82421875 24.8046875 C-87.29637762 27.68044847 -94.2804018 32.7730671 -99.41015625 40.12109375 C-101.06015625 43.75109375 -102.71015625 47.38109375 -104.41015625 51.12109375 C-122.56015625 51.12109375 -140.71015625 51.12109375 -159.41015625 51.12109375 C-157.0358297 29.75215484 -147.14324745 10.93411282 -130.2421875 -2.6171875 C-92.5770405 -30.3284131 -36.54282718 -28.48800627 0 0 Z M-100.41015625 115.12109375 C-101.04824219 115.45753906 -101.68632812 115.79398438 -102.34375 116.140625 C-107.79211563 119.45651204 -110.58697972 124.07328789 -112.41015625 130.12109375 C-113.675461 139.1016714 -112.7954361 146.69406658 -107.41015625 154.12109375 C-101.47659723 161.24136457 -92.68545884 163.93663203 -83.72265625 164.99609375 C-69.27859886 165.74546119 -54.6572636 163.12287859 -43.21484375 153.76953125 C-34.98617863 146.25330467 -28.63829877 136.46695329 -27.41015625 125.12109375 C-27.36287938 122.35995242 -27.34531543 119.61187907 -27.3671875 116.8515625 C-27.37028931 116.10789429 -27.37339111 115.36422607 -27.37658691 114.59802246 C-27.38464884 112.77236307 -27.39697817 110.94672338 -27.41015625 109.12109375 C-34.59599746 109.07001616 -41.78179113 109.03520292 -48.96777344 109.01123047 C-51.4078954 109.00122732 -53.84800555 108.98762053 -56.28808594 108.97021484 C-59.81318088 108.945715 -63.33811613 108.93455342 -66.86328125 108.92578125 C-67.93878235 108.91545868 -69.01428345 108.90513611 -70.12237549 108.89450073 C-80.79471525 108.89295081 -90.94043808 109.92095949 -100.41015625 115.12109375 Z " fill="#0066FF" transform="translate(3002.41015625,170.87890625)"/>
<path d="M0 0 C0.82886719 0.75796875 1.65773438 1.5159375 2.51171875 2.296875 C3.35089844 3.05484375 4.19007813 3.8128125 5.0546875 4.59375 C21.77975907 20.46312023 31.62775672 40.9670974 36.51171875 63.296875 C36.75664062 64.40546875 37.0015625 65.5140625 37.25390625 66.65625 C43.02567429 99.07302939 36.2362028 132.16890762 18.35546875 159.60546875 C0.74151758 184.14374493 -25.17773154 199.09166118 -54.73828125 204.109375 C-85.99975083 208.83066337 -117.67304313 202.59737149 -143.55078125 184.171875 C-168.31135911 164.70999415 -181.99241195 139.52981579 -187.1015625 108.58203125 C-188.93974169 92.07325582 -188.6370392 74.42349864 -184.48828125 58.296875 C-184.32199219 57.64009766 -184.15570312 56.98332031 -183.984375 56.30664062 C-176.88970633 29.05785762 -159.93963102 4.66680801 -135.48828125 -9.703125 C-122.43000657 -17.1966391 -108.43301499 -22.4795141 -93.48828125 -24.703125 C-92.76382813 -24.81398437 -92.039375 -24.92484375 -91.29296875 -25.0390625 C-59.23642632 -29.05971358 -24.72347841 -21.4344058 0 0 Z M-118.37890625 45.5703125 C-130.57293243 61.95272159 -134.86262605 81.52492293 -132.17919922 101.61035156 C-129.25263173 118.88569632 -121.3803991 133.74636544 -107.26171875 144.4765625 C-93.86341909 153.27037608 -80.18821506 156.03442813 -64.34765625 153.8671875 C-47.9704934 150.32026186 -35.56488215 141.63511861 -26.53125 127.68359375 C-16.0941874 110.38161808 -14.13413549 90.39028959 -18.515625 70.8671875 C-22.85789537 54.92809063 -32.02765214 41.37061081 -46.11328125 32.484375 C-70.30227714 19.28479603 -100.63813619 24.23740305 -118.37890625 45.5703125 Z " fill="#0066FF" transform="translate(2197.48828125,174.703125)"/>
<path d="M0 0 C22.76293677 -0.68616232 44.47302527 5.3703431 61.875 20.59375 C63.45588513 22.09546318 65.01936515 23.61577114 66.5625 25.15625 C67.25988281 25.84203125 67.95726563 26.5278125 68.67578125 27.234375 C91.02039237 50.66367598 92.03391835 81.90130249 91.86668181 112.36159444 C91.84771545 116.40807513 91.84614907 120.45456508 91.84260559 124.50108337 C91.83334297 132.13626273 91.80880901 139.77131065 91.77855712 147.40643257 C91.74483115 156.11039104 91.72848172 164.81435635 91.71347082 173.51836407 C91.68225308 191.39774866 91.62731498 209.27695347 91.5625 227.15625 C73.4125 227.15625 55.2625 227.15625 36.5625 227.15625 C36.54062622 221.07074707 36.54062622 221.07074707 36.51831055 214.86230469 C36.4679001 201.4352591 36.40144194 188.00833277 36.32678509 174.58140182 C36.28192472 166.4432785 36.24248787 158.30519799 36.21606445 150.16699219 C36.19300498 143.06917771 36.15951911 135.97149982 36.11379844 128.87379384 C36.08997274 125.11972774 36.07117454 121.36579602 36.06488609 117.61165619 C36.05878652 114.06899325 36.03861413 110.52667366 36.00822449 106.98413849 C35.99541136 105.08280956 35.99700079 103.1814001 35.9992218 101.2800293 C35.85191019 87.6414592 32.83559291 75.57360106 23.75 65.05859375 C13.20280243 55.06072938 0.0180348 51.62764778 -14.140625 51.91015625 C-26.16931182 52.80803216 -37.71461735 57.28775114 -45.94921875 66.328125 C-54.8349032 77.24282401 -57.03932486 89.47329033 -56.98339844 103.30004883 C-56.99215939 104.66156683 -57.00265381 106.02307458 -57.01472473 107.38456726 C-57.04229764 111.03665742 -57.04599587 114.6884069 -57.04500484 118.34058595 C-57.04815899 122.1736404 -57.07382854 126.00654692 -57.09698486 129.83952332 C-57.13735858 137.07811227 -57.15784143 144.31661156 -57.17095876 151.55529565 C-57.18689237 159.80461314 -57.22533433 168.05377942 -57.26555204 176.30300868 C-57.34769576 193.25406716 -57.39897676 210.20502772 -57.4375 227.15625 C-75.5875 227.15625 -93.7375 227.15625 -112.4375 227.15625 C-112.4375 153.89625 -112.4375 80.63625 -112.4375 5.15625 C-95.6075 5.15625 -78.7775 5.15625 -61.4375 5.15625 C-60.1175 11.75625 -58.7975 18.35625 -57.4375 25.15625 C-53.9725 22.18625 -53.9725 22.18625 -50.4375 19.15625 C-35.35642027 7.73289483 -18.99862256 0.86357375 0 0 Z " fill="#0066FF" transform="translate(2380.4375,148.84375)"/>
<path d="M0 0 C78.87 0 157.74 0 239 0 C239 18.15 239 36.3 239 55 C208.97 55 178.94 55 148 55 C148 137.5 148 220 148 305 C129.19 305 110.38 305 91 305 C91 222.5 91 140 91 55 C60.97 55 30.94 55 0 55 C0 36.85 0 18.7 0 0 Z " fill="#0066FF" transform="translate(1075,71)"/>
<path d="M0 0 C78.87 0 157.74 0 239 0 C239 18.15 239 36.3 239 55 C208.97 55 178.94 55 148 55 C148 137.17 148 219.34 148 304 C129.19 304 110.38 304 91 304 C91 221.83 91 139.66 91 55 C60.97 55 30.94 55 0 55 C0 36.85 0 18.7 0 0 Z " fill="#0066FF" transform="translate(1075,496)"/>
<path d="M0 0 C8.14954777 7.45322565 15.59183575 14.82266729 21.46875 24.2578125 C22.03980469 25.12277344 22.61085938 25.98773437 23.19921875 26.87890625 C27.02307067 32.96499285 29.8229284 39.23943123 32.34375 45.9453125 C32.64216797 46.72898193 32.94058594 47.51265137 33.24804688 48.32006836 C33.52455078 49.08714111 33.80105469 49.85421387 34.0859375 50.64453125 C34.32940918 51.31701904 34.57288086 51.98950684 34.82373047 52.68237305 C35.77055404 56.46285823 36.03837094 60.38440096 36.46875 64.2578125 C18.31875 64.2578125 0.16875 64.2578125 -18.53125 64.2578125 C-21.99625 57.3278125 -21.99625 57.3278125 -25.53125 50.2578125 C-34.05672483 39.03260398 -44.58011499 32.65923738 -58.53125 30.2578125 C-74.80244536 28.64589969 -89.4398834 32.03097825 -102.65625 41.8828125 C-116.0924119 53.10422244 -123.08289946 69.46939122 -124.76318359 86.62597656 C-125.97762592 105.37512716 -121.39463164 124.05004775 -109.84375 139.1953125 C-98.52599859 150.91396519 -83.33241697 157.12486257 -67.21875 157.5703125 C-53.76049107 157.30146361 -41.94575509 153.43144612 -31.84375 144.3828125 C-26.09751536 138.34667773 -22.93242784 130.76296259 -19.53125 123.2578125 C-19.20125 122.5978125 -18.87125 121.9378125 -18.53125 121.2578125 C-0.38125 121.2578125 17.76875 121.2578125 36.46875 121.2578125 C34.05695229 142.96399187 23.704813 161.93734153 9.46875 178.2578125 C8.88867188 178.9384375 8.30859375 179.6190625 7.7109375 180.3203125 C-10.58575739 200.18004163 -37.5651581 208.02723013 -63.69921875 209.546875 C-96.05544952 210.27249893 -125.45452209 199.51603731 -148.84936523 177.21850586 C-154.18433358 172.00906618 -158.57297154 166.56031412 -162.53125 160.2578125 C-163.10359375 159.3915625 -163.6759375 158.5253125 -164.265625 157.6328125 C-180.98006149 131.00804641 -184.97159573 95.61309486 -178.5 65.1796875 C-172.31112286 39.22220694 -158.73759673 16.5840376 -137.53125 0.2578125 C-136.76167969 -0.350625 -135.99210937 -0.9590625 -135.19921875 -1.5859375 C-97.94727337 -29.50903114 -36.00798814 -30.60678992 0 0 Z " fill="#0066FF" transform="translate(1713.53125,595.7421875)"/>
<path d="M0 0 C1.30324219 1.09054688 1.30324219 1.09054688 2.6328125 2.203125 C3.41914063 2.82703125 4.20546875 3.4509375 5.015625 4.09375 C22.00004388 18.17839005 33.77257919 40.88631224 38.6328125 62.203125 C38.6328125 63.193125 38.6328125 64.183125 38.6328125 65.203125 C20.4828125 65.203125 2.3328125 65.203125 -16.3671875 65.203125 C-19.0071875 60.583125 -21.6471875 55.963125 -24.3671875 51.203125 C-33.8218389 39.31727753 -43.35522544 33.88708185 -58.3671875 31.203125 C-73.33048332 29.76496806 -88.07841369 33.10844628 -100.12890625 42.3125 C-113.74444564 54.11670455 -121.91564766 70.014631 -123.27734375 88.1484375 C-123.32181641 89.16550781 -123.32181641 89.16550781 -123.3671875 90.203125 C-123.40714844 90.88117188 -123.44710937 91.55921875 -123.48828125 92.2578125 C-124.07381281 111.06370836 -118.04900205 129.15293779 -105.1796875 142.953125 C-92.92798618 154.59954636 -78.75507586 158.5634247 -62.25390625 158.41796875 C-48.69351274 157.66839926 -36.54190991 152.27767595 -27.3671875 142.203125 C-22.88487887 135.97882824 -19.79504049 129.05883098 -16.3671875 122.203125 C1.7828125 122.203125 19.9328125 122.203125 38.6328125 122.203125 C33.70568116 149.30234738 19.8285316 175.20540592 -2.75 191.77734375 C-27.79430419 209.07820433 -58.69692963 213.67903422 -88.40063477 208.68359375 C-117.0426243 203.26621567 -143.18651305 187.6710709 -159.77246094 163.39501953 C-178.52287265 134.96876245 -183.31710912 100.01295574 -176.96240234 66.89550781 C-170.8987674 39.46738389 -155.42767574 13.70411939 -131.64160156 -1.93115234 C-92.66937175 -26.11375486 -37.30620309 -29.88562319 0 0 Z " fill="#0066FF" transform="translate(2778.3671875,169.796875)"/>
<path d="M0 0 C1.27322113 0.0028299 2.54644226 0.00565979 3.85824585 0.00857544 C7.20867773 0.01781265 10.55882587 0.03571458 13.90917969 0.0579834 C17.34177178 0.07860999 20.7743943 0.08772312 24.20703125 0.09765625 C30.91682389 0.11790306 37.6261272 0.15706786 44.3359375 0.1953125 C44.3359375 16.3653125 44.3359375 32.5353125 44.3359375 49.1953125 C25.7109375 49.4453125 25.7109375 49.4453125 19.86474609 49.49316406 C18.32125904 49.52255178 16.77779846 49.55338078 15.234375 49.5859375 C14.04968628 49.58762939 14.04968628 49.58762939 12.84106445 49.58935547 C7.5908229 49.72435698 4.40484414 50.58169454 0.3359375 54.1953125 C-2.38044351 58.38736956 -3.05795886 61.73895977 -3.17578125 66.6875 C-3.22545044 68.30954346 -3.22545044 68.30954346 -3.27612305 69.96435547 C-3.30101807 71.31932129 -3.32591309 72.67428711 -3.3515625 74.0703125 C-3.4546875 78.4015625 -3.5578125 82.7328125 -3.6640625 87.1953125 C12.1759375 87.1953125 28.0159375 87.1953125 44.3359375 87.1953125 C44.3359375 104.6853125 44.3359375 122.1753125 44.3359375 140.1953125 C28.4959375 140.1953125 12.6559375 140.1953125 -3.6640625 140.1953125 C-3.6640625 195.9653125 -3.6640625 251.7353125 -3.6640625 309.1953125 C-21.8140625 309.1953125 -39.9640625 309.1953125 -58.6640625 309.1953125 C-58.6640625 253.4253125 -58.6640625 197.6553125 -58.6640625 140.1953125 C-70.8740625 140.1953125 -83.0840625 140.1953125 -95.6640625 140.1953125 C-95.6640625 122.7053125 -95.6640625 105.2153125 -95.6640625 87.1953125 C-83.4540625 87.1953125 -71.2440625 87.1953125 -58.6640625 87.1953125 C-58.71626953 82.74804688 -58.71626953 82.74804688 -58.76953125 78.2109375 C-58.7930068 75.30160482 -58.81117771 72.39228317 -58.82885742 69.48291016 C-58.84383392 67.47928045 -58.86422231 65.47568289 -58.89038086 63.47216797 C-59.13157102 44.50800064 -57.65998606 28.82428474 -44.0546875 14.453125 C-31.37676228 2.47952896 -16.88372748 -0.14319965 0 0 Z " fill="#0066FF" transform="translate(1958.6640625,66.8046875)"/>
<path d="M0 0 C18.15 0 36.3 0 55 0 C55 100.65 55 201.3 55 305 C36.85 305 18.7 305 0 305 C0 204.35 0 103.7 0 0 Z " fill="#0066FF" transform="translate(1543,71)"/>
<path d="M0 0 C18.15 0 36.3 0 55 0 C55 73.26 55 146.52 55 222 C36.85 222 18.7 222 0 222 C0 148.74 0 75.48 0 0 Z " fill="#0066FF" transform="translate(2513,154)"/>
<path d="M0 0 C-1.24300178 3.22479497 -2.3274011 5.70703308 -4.65234375 8.27734375 C-5.17570312 8.86580078 -5.6990625 9.45425781 -6.23828125 10.06054688 C-6.79902344 10.67994141 -7.35976562 11.29933594 -7.9375 11.9375 C-12.29015426 16.84386581 -16.50044018 21.80153669 -20.5 27 C-24.85010484 32.63690136 -29.4385646 38.01595143 -34.13769531 43.36376953 C-38.95224129 48.87291558 -43.479115 54.58007925 -47.953125 60.3671875 C-50 63 -50 63 -51 64 C-52.47354348 64.09304018 -53.95150591 64.11746265 -55.42797852 64.11352539 C-56.36887833 64.11344986 -57.30977814 64.11337433 -58.27919006 64.11329651 C-59.30209641 64.10813522 -60.32500275 64.10297394 -61.37890625 64.09765625 C-62.42070541 64.0962413 -63.46250458 64.09482635 -64.53587341 64.09336853 C-67.87811094 64.0877508 -71.22028257 64.0751953 -74.5625 64.0625 C-76.82226466 64.05748728 -79.08203037 64.05292398 -81.34179688 64.04882812 C-86.89455391 64.03777561 -92.44727225 64.02102024 -98 64 C-96.50051953 59.76367095 -94.31852568 56.17971909 -91.84375 52.4609375 C-91.43131042 51.83011261 -91.01887085 51.19928772 -90.59393311 50.54934692 C-88.2900368 47.03561292 -85.94245266 43.55618756 -83.55371094 40.09960938 C-78.83187445 33.21008672 -74.64890315 26.68253134 -71.609375 18.8828125 C-59.42152752 -10.17003427 -26.48490039 -2.35554541 0 0 Z " fill="#0066FF" transform="translate(2199,60)"/>
<path d="M0 0 C8.23269438 4.80741278 13.90782206 12.11091684 16.515625 21.375 C18.13857099 31.43726513 16.70519821 40.56298602 11.140625 49.25 C5.65759832 56.29751696 -2.01147217 60.88878418 -10.859375 62.25 C-21.22085698 63.15554128 -29.7829622 61.00268717 -37.81640625 54.27734375 C-44.24878763 47.8941584 -48.03440021 40.64853953 -48.23999023 31.49023438 C-48.21071352 20.7876848 -46.14877749 13.95456114 -38.78515625 6.0390625 C-28.33761154 -3.66677011 -13.01149655 -6.20415729 0 0 Z " fill="#0066FF" transform="translate(2555.859375,60.75)"/>
</svg>
